<svg xmlns="http://www.w3.org/2000/svg" xmlns:xlink="http://www.w3.org/1999/xlink" version="1.1" data-diagram-type="ACTIVITY" style="width:2536px;height:1974px;background:#FFFFFF;" width="2536.875px" height="1974.271px" viewBox="0 0 2536 1974" zoomAndPan="magnify" preserveAspectRatio="none" contentStyleType="text/css"><?plantuml 1.2026.8?><defs/><g font-family="sans-serif" lengthAdjust="spacing"><g class="title" data-source-line="2"><text x="894.28" y="39.934" fill="#000" font-size="18.333" textLength="746.475" font-weight="700" font-family="'DejaVu Sans'">ASSESS job at the hub: one judgment round on the current requirement</text></g><rect x="22.917" y="64.115" width="2483.472" height="16.006" fill="none" style="stroke:none;"/><ellipse cx="303.153" cy="97.309" rx="11.458" ry="11.458" fill="#222" style="stroke:#222;stroke-width:1.146;"/><rect x="199.386" y="131.684" width="207.535" height="54.928" fill="#F1F1F1" style="stroke:#181818;stroke-width:0.573;" rx="3.438" ry="3.438"/><text x="210.845" y="155.905" fill="#000" font-size="13.75" textLength="121.769" font-family="'DejaVu Sans'">Claim ASSESS job</text><text x="210.845" y="171.911" fill="#000" font-size="13.75" textLength="184.618" font-family="'DejaVu Sans'">(assessment_id, round_no)</text><rect x="29.792" y="513.998" width="171.756" height="38.923" fill="#F1F1F1" style="stroke:#181818;stroke-width:0.573;" rx="3.438" ry="3.438"/><text x="41.25" y="538.219" fill="#000" font-size="13.75" textLength="148.84" font-family="'DejaVu Sans'">Mark job SUCCEEDED</text><ellipse cx="115.67" cy="588.441" rx="12.604" ry="12.604" fill="none" style="stroke:#222;stroke-width:1.146;"/><ellipse cx="115.67" cy="588.441" rx="6.875" ry="6.875" fill="#222" style="stroke:#222;stroke-width:1.146;"/><rect x="217.275" y="1863.743" width="171.756" height="38.923" fill="#F1F1F1" style="stroke:#181818;stroke-width:0.573;" rx="3.438" ry="3.438"/><text x="228.734" y="1887.964" fill="#000" font-size="13.75" textLength="148.84" font-family="'DejaVu Sans'">Mark job SUCCEEDED</text><ellipse cx="303.153" cy="1938.186" rx="12.604" ry="12.604" fill="none" style="stroke:#222;stroke-width:1.146;"/><ellipse cx="303.153" cy="1938.186" rx="6.875" ry="6.875" fill="#222" style="stroke:#222;stroke-width:1.146;"/><line x1="22.917" y1="64.115" x2="22.917" y2="1950.79" style="stroke:#000;stroke-width:1.719;"/><polygon points="790.36,287.374,1019.417,287.374,1033.167,303.38,1019.417,319.385,790.36,319.385,776.61,303.38,790.36,287.374" fill="#F1F1F1" style="stroke:#181818;stroke-width:0.573;stroke-linejoin:miter;stroke-miterlimit:10;"/><text x="790.36" y="300.137" fill="#000" font-size="13.75" textLength="229.057" font-family="'DejaVu Sans'">identifier_evidence: valid GTIN or</text><text x="790.36" y="316.143" fill="#000" font-size="13.75" textLength="222.471" font-family="'DejaVu Sans'">manufacturer article no. match?</text><text x="655.541" y="300.407" fill="#000" font-size="12.604" textLength="121.069" font-family="'DejaVu Sans'">SAME_TRADE_ITEM</text><text x="1033.167" y="300.407" fill="#000" font-size="12.604" textLength="114.988" font-family="'DejaVu Sans'">NO_INFORMATION</text><rect x="534.011" y="342.302" width="366.788" height="54.928" fill="#F1F1F1" style="stroke:#181818;stroke-width:0.573;" rx="3.438" ry="3.438"/><text x="545.469" y="366.523" fill="#000" font-size="13.75" textLength="343.871" font-family="'DejaVu Sans'">Verdict EQUIVALENT (reason SAME_TRADE_ITEM);</text><text x="545.469" y="382.529" fill="#000" font-size="13.75" textLength="205.404" font-family="'DejaVu Sans'">no comparators, no judge call</text><rect x="923.715" y="342.302" width="337.314" height="70.934" fill="#F1F1F1" style="stroke:#181818;stroke-width:0.573;" rx="3.438" ry="3.438"/><text x="935.173" y="366.523" fill="#000" font-size="13.75" textLength="314.397" font-family="'DejaVu Sans'">Identifier facts dropped from the comparison:</text><text x="935.173" y="382.529" fill="#000" font-size="13.75" textLength="258.947" font-family="'DejaVu Sans'">never MISMATCH, never an unknown,</text><text x="935.173" y="398.535" fill="#000" font-size="13.75" textLength="180.764" font-family="'DejaVu Sans'">never in the judge prompt</text><rect x="758.612" y="881.573" width="292.552" height="70.934" fill="#F1F1F1" style="stroke:#181818;stroke-width:0.573;" rx="3.438" ry="3.438"/><text x="770.07" y="905.795" fill="#000" font-size="13.75" textLength="265.862" font-family="'DejaVu Sans'">Hospital side = requirement attributes</text><text x="770.07" y="921.801" fill="#000" font-size="13.75" textLength="218.328" font-family="'DejaVu Sans'">(+ unknown / unavailable lists);</text><text x="770.07" y="937.806" fill="#000" font-size="13.75" textLength="269.636" font-family="'DejaVu Sans'">supplier side = variant effective record</text><rect x="746.138" y="975.424" width="317.501" height="70.934" fill="#F1F1F1" style="stroke:#181818;stroke-width:0.573;" rx="3.438" ry="3.438"/><text x="757.596" y="999.646" fill="#000" font-size="13.75" textLength="259.249" font-family="'DejaVu Sans'">input_hash = hash(requirement_hash</text><text x="757.596" y="1015.651" fill="#000" font-size="13.75" textLength="294.584" font-family="'DejaVu Sans'">+ supplier record_hash + definition_hash);</text><text x="757.596" y="1031.657" fill="#000" font-size="13.75" textLength="293.127" font-family="'DejaVu Sans'">store snapshot (incl. the definition judged)</text><rect x="773.03" y="1069.275" width="263.716" height="70.934" fill="#F1F1F1" style="stroke:#181818;stroke-width:0.573;" rx="3.438" ry="3.438"/><text x="784.489" y="1093.497" fill="#000" font-size="13.75" textLength="240.8" font-family="'DejaVu Sans'">Run comparators where both sides</text><text x="784.489" y="1109.502" fill="#000" font-size="13.75" textLength="158.629" font-family="'DejaVu Sans'">have structured values</text><text x="784.489" y="1125.508" fill="#000" font-size="13.75" textLength="117.996" font-family="'DejaVu Sans'">(results are final)</text><rect x="783.766" y="1266.072" width="242.245" height="54.928" fill="#F1F1F1" style="stroke:#181818;stroke-width:0.573;" rx="3.438" ry="3.438"/><text x="795.224" y="1290.293" fill="#000" font-size="13.75" textLength="219.329" font-family="'DejaVu Sans'">Validate output against schema</text><text x="795.224" y="1306.299" fill="#000" font-size="13.75" textLength="119.091" font-family="'DejaVu Sans'">(one repair retry)</text><rect x="742.794" y="1343.917" width="324.188" height="54.928" fill="#F1F1F1" style="stroke:#181818;stroke-width:0.573;" rx="3.438" ry="3.438"/><text x="754.253" y="1368.138" fill="#000" font-size="13.75" textLength="296.572" font-family="'DejaVu Sans'">Discard judgments for comparator-decided</text><text x="754.253" y="1384.144" fill="#000" font-size="13.75" textLength="301.271" font-family="'DejaVu Sans'">attributes; unknown citations -> UNKNOWN</text><rect x="712.26" y="1421.762" width="385.257" height="102.946" fill="#F1F1F1" style="stroke:#181818;stroke-width:0.573;" rx="3.438" ry="3.438"/><text x="723.718" y="1445.983" fill="#000" font-size="13.75" textLength="129.121" font-family="'DejaVu Sans'">Apply verdict rules</text><text x="723.718" y="1461.989" fill="#000" font-size="13.75" textLength="283.493" font-family="'DejaVu Sans'">(critical MISMATCH -> NOT_EQUIVALENT,</text><text x="723.718" y="1477.995" fill="#000" font-size="13.75" textLength="337.419" font-family="'DejaVu Sans'">critical/major UNKNOWN -> INSUFFICIENT_DATA,</text><text x="723.718" y="1494.001" fill="#000" font-size="13.75" textLength="362.341" font-family="'DejaVu Sans'">major MISMATCH or deviation -> WITH_DEVIATIONS,</text><text x="723.718" y="1510.007" fill="#000" font-size="13.75" textLength="125.113" font-family="'DejaVu Sans'">else EQUIVALENT)</text><polygon points="506.083,1547.949,622.918,1547.949,636.668,1561.699,622.918,1575.449,506.083,1575.449,492.333,1561.699,506.083,1547.949" fill="#F1F1F1" style="stroke:#181818;stroke-width:0.573;stroke-linejoin:miter;stroke-miterlimit:10;"/><text x="569.084" y="1587.149" fill="#000" font-size="12.604" textLength="21.78" font-family="'DejaVu Sans'">yes</text><text x="506.083" y="1566.459" fill="#000" font-size="13.75" textLength="116.835" font-family="'DejaVu Sans'">Verdict decisive?</text><rect x="418.379" y="1613.038" width="292.243" height="38.923" fill="#F1F1F1" style="stroke:#181818;stroke-width:0.573;" rx="3.438" ry="3.438"/><text x="429.837" y="1637.259" fill="#000" font-size="13.75" textLength="269.327" font-family="'DejaVu Sans'">next status = PROPOSED_RESOLUTION</text><polygon points="766.321,1537.69,1007.496,1537.69,1021.246,1561.699,1007.496,1585.708,766.321,1585.708,752.571,1561.699,766.321,1537.69" fill="#F1F1F1" style="stroke:#181818;stroke-width:0.573;stroke-linejoin:miter;stroke-miterlimit:10;"/><text x="891.492" y="1597.407" fill="#000" font-size="12.604" textLength="21.78" font-family="'DejaVu Sans'">yes</text><text x="766.321" y="1550.453" fill="#000" font-size="13.75" textLength="129.678" font-family="'DejaVu Sans'">round cap reached</text><text x="766.321" y="1566.459" fill="#000" font-size="13.75" textLength="174.829" font-family="'DejaVu Sans'">or input_hash unchanged</text><text x="766.321" y="1582.465" fill="#000" font-size="13.75" textLength="241.176" font-family="'DejaVu Sans'">or all blocking gaps UNAVAILABLE?</text><text x="1021.246" y="1558.727" fill="#000" font-size="12.604" textLength="15.7" font-family="'DejaVu Sans'">no</text><rect x="733.539" y="1623.297" width="306.739" height="54.928" fill="#F1F1F1" style="stroke:#181818;stroke-width:0.573;" rx="3.438" ry="3.438"/><text x="744.998" y="1647.518" fill="#000" font-size="13.75" textLength="283.822" font-family="'DejaVu Sans'">next status = NEEDS_MANUAL_DECISION</text><text x="744.998" y="1663.524" fill="#000" font-size="13.75" textLength="141.313" font-family="'DejaVu Sans'">(manual_reason set)</text><rect x="1063.195" y="1587.738" width="328.203" height="86.94" fill="#F1F1F1" style="stroke:#181818;stroke-width:0.573;" rx="3.438" ry="3.438"/><text x="1074.653" y="1611.959" fill="#000" font-size="13.75" textLength="167.155" font-family="'DejaVu Sans'">Create DRAFT questions</text><text x="1074.653" y="1627.965" fill="#000" font-size="13.75" textLength="228.352" font-family="'DejaVu Sans'">(SUPPLIER for supplier-side gaps,</text><text x="1074.653" y="1643.971" fill="#000" font-size="13.75" textLength="275.967" font-family="'DejaVu Sans'">PURCHASER for requirement unknowns;</text><text x="1074.653" y="1659.977" fill="#000" font-size="13.75" textLength="305.286" font-family="'DejaVu Sans'">supplier text never includes hospital values)</text><rect x="1073.755" y="1701.142" width="307.081" height="38.923" fill="#F1F1F1" style="stroke:#181818;stroke-width:0.573;" rx="3.438" ry="3.438"/><text x="1085.214" y="1725.363" fill="#000" font-size="13.75" textLength="284.164" font-family="'DejaVu Sans'">next status = NEEDS_QUESTION_REVIEW</text><line x1="411.504" y1="64.115" x2="411.504" y2="1950.79" style="stroke:#000;stroke-width:1.719;"/><rect x="1402.856" y="679.423" width="205.413" height="38.923" fill="#F1F1F1" style="stroke:#181818;stroke-width:0.573;" rx="3.438" ry="3.438"/><text x="1414.314" y="703.645" fill="#000" font-size="13.75" textLength="182.496" font-family="'DejaVu Sans'">normalize_item (Sonnet 5)</text><path d="M1628.376,1151.668 L1628.376,1192.828 L1605.459,1197.411 L1628.376,1201.995 L1628.376,1243.155 A0,0 0 0 0 1628.376,1243.155 L1928.506,1243.155 A0,0 0 0 0 1928.506,1243.155 L1928.506,1163.126 L1917.047,1151.668 L1628.376,1151.668 A0,0 0 0 0 1628.376,1151.668" style="stroke:#C9A227;stroke-width:0.573;" fill="#FFF8E1"/><path d="M1917.047,1151.668 L1917.047,1163.126 L1928.506,1163.126 L1917.047,1151.668" style="stroke:#C9A227;stroke-width:0.573;" fill="#FFF8E1"/><text x="1635.251" y="1170.16" fill="#000" font-size="13.75" textLength="253.133" font-family="'DejaVu Sans'">Prompt gets requirement values and</text><text x="1635.251" y="1186.166" fill="#000" font-size="13.75" textLength="249.628" font-family="'DejaVu Sans'">supplier facts only: no tenant name,</text><text x="1635.251" y="1202.172" fill="#000" font-size="13.75" textLength="234.992" font-family="'DejaVu Sans'">no article_ref. API error: retry with</text><text x="1635.251" y="1218.177" fill="#000" font-size="13.75" textLength="269.501" font-family="'DejaVu Sans'">growing delay; after max_attempts the</text><text x="1635.251" y="1234.183" fill="#000" font-size="13.75" textLength="276.068" font-family="'DejaVu Sans'">job and the assessment become FAILED</text><rect x="1405.666" y="1169.947" width="199.793" height="54.928" fill="#F1F1F1" style="stroke:#181818;stroke-width:0.573;" rx="3.438" ry="3.438"/><text x="1417.124" y="1194.169" fill="#000" font-size="13.75" textLength="102.098" font-family="'DejaVu Sans'">judge (Opus 5)</text><text x="1417.124" y="1210.175" fill="#000" font-size="13.75" textLength="176.877" font-family="'DejaVu Sans'">undecided attributes only</text><line x1="1395.981" y1="64.115" x2="1395.981" y2="1950.79" style="stroke:#000;stroke-width:1.719;"/><rect x="2152.646" y="209.529" width="295.09" height="54.928" fill="#F1F1F1" style="stroke:#181818;stroke-width:0.573;" rx="3.438" ry="3.438"/><text x="2164.104" y="233.75" fill="#000" font-size="13.75" textLength="272.173" font-family="'DejaVu Sans'">Load assessment, current requirement,</text><text x="2164.104" y="249.756" fill="#000" font-size="13.75" textLength="121.91" font-family="'DejaVu Sans'">variant projection</text><rect x="1941.11" y="436.153" width="343.195" height="54.928" fill="#F1F1F1" style="stroke:#181818;stroke-width:0.573;" rx="3.438" ry="3.438"/><text x="1952.568" y="460.374" fill="#000" font-size="13.75" textLength="320.278" font-family="'DejaVu Sans'">Write assessment_round (identifier_evidence),</text><text x="1952.568" y="476.38" fill="#000" font-size="13.75" textLength="273.429" font-family="'DejaVu Sans'">status PROPOSED_RESOLUTION, events</text><rect x="2201.322" y="753.312" width="197.739" height="54.928" fill="#F1F1F1" style="stroke:#181818;stroke-width:0.573;" rx="3.438" ry="3.438"/><text x="2212.78" y="777.533" fill="#000" font-size="13.75" textLength="174.822" font-family="'DejaVu Sans'">Insert EXTRACTION facts;</text><text x="2212.78" y="793.539" fill="#000" font-size="13.75" textLength="121.266" font-family="'DejaVu Sans'">rebuild projection</text><polygon points="2236.097,623.962,2364.285,623.962,2378.035,637.712,2364.285,651.462,2236.097,651.462,2222.347,637.712,2236.097,623.962" fill="#F1F1F1" style="stroke:#181818;stroke-width:0.573;stroke-linejoin:miter;stroke-miterlimit:10;"/><text x="2304.774" y="663.162" fill="#000" font-size="12.604" textLength="21.78" font-family="'DejaVu Sans'">yes</text><text x="2236.097" y="642.472" fill="#000" font-size="13.75" textLength="128.188" font-family="'DejaVu Sans'">Family facts stale?</text><text x="2378.035" y="634.74" fill="#000" font-size="12.604" textLength="15.7" font-family="'DejaVu Sans'">no</text><polygon points="2300.191,831.157,2313.941,844.907,2300.191,858.657,2286.441,844.907,2300.191,831.157" fill="#F1F1F1" style="stroke:#181818;stroke-width:0.573;stroke-linejoin:miter;stroke-miterlimit:10;"/><rect x="2099.616" y="1785.898" width="401.149" height="54.928" fill="#F1F1F1" style="stroke:#181818;stroke-width:0.573;" rx="3.438" ry="3.438"/><text x="2111.075" y="1810.119" fill="#000" font-size="13.75" textLength="378.232" font-family="'DejaVu Sans'">Write assessment_round (requirement_id, input_hash),</text><text x="2111.075" y="1826.125" fill="#000" font-size="13.75" textLength="310.691" font-family="'DejaVu Sans'">questions, status + version, events, llm_calls</text><line x1="1934.235" y1="64.115" x2="1934.235" y2="1950.79" style="stroke:#000;stroke-width:1.719;"/><line x1="2505.349" y1="64.115" x2="2505.349" y2="1950.79" style="stroke:#000;stroke-width:1.719;"/><line x1="303.153" y1="108.767" x2="303.153" y2="131.684" style="stroke:#37474F;stroke-width:1.146;"/><polygon points="298.57,120.225,303.153,131.684,307.737,120.225,303.153,124.809" fill="#37474F" style="stroke:#37474F;stroke-width:1.146;stroke-linejoin:miter;stroke-miterlimit:10;"/><line x1="115.67" y1="552.921" x2="115.67" y2="575.837" style="stroke:#37474F;stroke-width:1.146;"/><polygon points="111.087,564.379,115.67,575.837,120.253,564.379,115.67,568.962" fill="#37474F" style="stroke:#37474F;stroke-width:1.146;stroke-linejoin:miter;stroke-miterlimit:10;"/><line x1="303.153" y1="1902.665" x2="303.153" y2="1925.582" style="stroke:#37474F;stroke-width:1.146;"/><polygon points="298.57,1914.124,303.153,1925.582,307.737,1914.124,303.153,1918.707" fill="#37474F" style="stroke:#37474F;stroke-width:1.146;stroke-linejoin:miter;stroke-miterlimit:10;"/><line x1="776.61" y1="303.38" x2="717.405" y2="303.38" style="stroke:#37474F;stroke-width:1.146;"/><line x1="717.405" y1="303.38" x2="717.405" y2="342.302" style="stroke:#37474F;stroke-width:1.146;"/><polygon points="712.821,330.844,717.405,342.302,721.988,330.844,717.405,335.427" fill="#37474F" style="stroke:#37474F;stroke-width:1.146;stroke-linejoin:miter;stroke-miterlimit:10;"/><line x1="1033.167" y1="303.38" x2="1092.372" y2="303.38" style="stroke:#37474F;stroke-width:1.146;"/><line x1="1092.372" y1="303.38" x2="1092.372" y2="342.302" style="stroke:#37474F;stroke-width:1.146;"/><polygon points="1087.789,330.844,1092.372,342.302,1096.955,330.844,1092.372,335.427" fill="#37474F" style="stroke:#37474F;stroke-width:1.146;stroke-linejoin:miter;stroke-miterlimit:10;"/><line x1="1092.372" y1="413.236" x2="1092.372" y2="606.775" style="stroke:#37474F;stroke-width:1.146;"/><line x1="1092.372" y1="606.775" x2="2300.191" y2="606.775" style="stroke:#37474F;stroke-width:1.146;"/><line x1="2300.191" y1="606.775" x2="2300.191" y2="623.962" style="stroke:#37474F;stroke-width:1.146;"/><polygon points="2295.608,612.504,2300.191,623.962,2304.774,612.504,2300.191,617.087" fill="#37474F" style="stroke:#37474F;stroke-width:1.146;stroke-linejoin:miter;stroke-miterlimit:10;"/><line x1="904.888" y1="952.508" x2="904.888" y2="975.424" style="stroke:#37474F;stroke-width:1.146;"/><polygon points="900.305,963.966,904.888,975.424,909.472,963.966,904.888,968.549" fill="#37474F" style="stroke:#37474F;stroke-width:1.146;stroke-linejoin:miter;stroke-miterlimit:10;"/><line x1="904.888" y1="1046.358" x2="904.888" y2="1069.275" style="stroke:#37474F;stroke-width:1.146;"/><polygon points="900.305,1057.817,904.888,1069.275,909.472,1057.817,904.888,1062.4" fill="#37474F" style="stroke:#37474F;stroke-width:1.146;stroke-linejoin:miter;stroke-miterlimit:10;"/><line x1="904.888" y1="1321" x2="904.888" y2="1343.917" style="stroke:#37474F;stroke-width:1.146;"/><polygon points="900.305,1332.459,904.888,1343.917,909.472,1332.459,904.888,1337.042" fill="#37474F" style="stroke:#37474F;stroke-width:1.146;stroke-linejoin:miter;stroke-miterlimit:10;"/><line x1="904.888" y1="1398.845" x2="904.888" y2="1421.762" style="stroke:#37474F;stroke-width:1.146;"/><polygon points="900.305,1410.304,904.888,1421.762,909.472,1410.304,904.888,1414.887" fill="#37474F" style="stroke:#37474F;stroke-width:1.146;stroke-linejoin:miter;stroke-miterlimit:10;"/><line x1="1227.296" y1="1674.678" x2="1227.296" y2="1701.142" style="stroke:#37474F;stroke-width:1.146;"/><polygon points="1222.713,1689.683,1227.296,1701.142,1231.879,1689.683,1227.296,1694.267" fill="#37474F" style="stroke:#37474F;stroke-width:1.146;stroke-linejoin:miter;stroke-miterlimit:10;"/><line x1="564.501" y1="1575.449" x2="564.501" y2="1613.038" style="stroke:#37474F;stroke-width:1.146;"/><polygon points="559.918,1601.58,564.501,1613.038,569.084,1601.58,564.501,1606.163" fill="#37474F" style="stroke:#37474F;stroke-width:1.146;stroke-linejoin:miter;stroke-miterlimit:10;"/><line x1="564.501" y1="1651.96" x2="564.501" y2="1762.981" style="stroke:#37474F;stroke-width:1.146;"/><polygon points="559.918,1751.523,564.501,1762.981,569.084,1751.523,564.501,1756.106" fill="#37474F" style="stroke:#37474F;stroke-width:1.146;stroke-linejoin:miter;stroke-miterlimit:10;"/><line x1="886.909" y1="1585.708" x2="886.909" y2="1623.297" style="stroke:#37474F;stroke-width:1.146;"/><polygon points="882.325,1611.838,886.909,1623.297,891.492,1611.838,886.909,1616.422" fill="#37474F" style="stroke:#37474F;stroke-width:1.146;stroke-linejoin:miter;stroke-miterlimit:10;"/><line x1="886.909" y1="1678.225" x2="886.909" y2="1762.981" style="stroke:#37474F;stroke-width:1.146;"/><polygon points="882.325,1751.523,886.909,1762.981,891.492,1751.523,886.909,1756.106" fill="#37474F" style="stroke:#37474F;stroke-width:1.146;stroke-linejoin:miter;stroke-miterlimit:10;"/><line x1="636.668" y1="1561.699" x2="752.571" y2="1561.699" style="stroke:#37474F;stroke-width:1.146;"/><polygon points="741.112,1557.116,752.571,1561.699,741.112,1566.283,745.696,1561.699" fill="#37474F" style="stroke:#37474F;stroke-width:1.146;stroke-linejoin:miter;stroke-miterlimit:10;"/><line x1="904.888" y1="1524.708" x2="904.888" y2="1530.437" style="stroke:#37474F;stroke-width:1.146;"/><line x1="904.888" y1="1530.437" x2="564.501" y2="1530.437" style="stroke:#37474F;stroke-width:1.146;"/><line x1="564.501" y1="1530.437" x2="564.501" y2="1547.949" style="stroke:#37474F;stroke-width:1.146;"/><polygon points="559.918,1536.491,564.501,1547.949,569.084,1536.491,564.501,1541.074" fill="#37474F" style="stroke:#37474F;stroke-width:1.146;stroke-linejoin:miter;stroke-miterlimit:10;"/><line x1="1021.246" y1="1561.699" x2="1227.296" y2="1561.699" style="stroke:#37474F;stroke-width:1.146;"/><line x1="1227.296" y1="1561.699" x2="1227.296" y2="1587.738" style="stroke:#37474F;stroke-width:1.146;"/><polygon points="1222.713,1576.28,1227.296,1587.738,1231.879,1576.28,1227.296,1580.863" fill="#37474F" style="stroke:#37474F;stroke-width:1.146;stroke-linejoin:miter;stroke-miterlimit:10;"/><line x1="1227.296" y1="1740.064" x2="1227.296" y2="1762.981" style="stroke:#37474F;stroke-width:1.146;"/><polygon points="1222.713,1751.523,1227.296,1762.981,1231.879,1751.523,1227.296,1756.106" fill="#37474F" style="stroke:#37474F;stroke-width:1.146;stroke-linejoin:miter;stroke-miterlimit:10;"/><line x1="564.501" y1="1762.981" x2="1227.296" y2="1762.981" style="stroke:#37474F;stroke-width:1.146;"/><line x1="2378.035" y1="637.712" x2="2414.356" y2="637.712" style="stroke:#37474F;stroke-width:1.146;"/><polygon points="2409.773,729.804,2414.356,741.262,2418.939,729.804,2414.356,734.387" fill="#37474F" style="stroke:#37474F;stroke-width:1.146;stroke-linejoin:miter;stroke-miterlimit:10;"/><line x1="2414.356" y1="637.712" x2="2414.356" y2="844.907" style="stroke:#37474F;stroke-width:1.146;"/><line x1="2414.356" y1="844.907" x2="2313.941" y2="844.907" style="stroke:#37474F;stroke-width:1.146;"/><polygon points="2325.399,840.323,2313.941,844.907,2325.399,849.49,2320.816,844.907" fill="#37474F" style="stroke:#37474F;stroke-width:1.146;stroke-linejoin:miter;stroke-miterlimit:10;"/><line x1="2300.191" y1="808.24" x2="2300.191" y2="831.157" style="stroke:#37474F;stroke-width:1.146;"/><polygon points="2295.608,819.698,2300.191,831.157,2304.774,819.698,2300.191,824.282" fill="#37474F" style="stroke:#37474F;stroke-width:1.146;stroke-linejoin:miter;stroke-miterlimit:10;"/><line x1="303.153" y1="186.612" x2="303.153" y2="192.341" style="stroke:#37474F;stroke-width:1.146;"/><line x1="303.153" y1="192.341" x2="2300.191" y2="192.341" style="stroke:#37474F;stroke-width:1.146;"/><line x1="2300.191" y1="192.341" x2="2300.191" y2="209.529" style="stroke:#37474F;stroke-width:1.146;"/><polygon points="2295.608,198.07,2300.191,209.529,2304.774,198.07,2300.191,202.654" fill="#37474F" style="stroke:#37474F;stroke-width:1.146;stroke-linejoin:miter;stroke-miterlimit:10;"/><line x1="717.405" y1="397.23" x2="717.405" y2="417.283" style="stroke:#37474F;stroke-width:1.146;"/><line x1="717.405" y1="417.283" x2="2112.707" y2="417.283" style="stroke:#37474F;stroke-width:1.146;"/><line x1="2112.707" y1="417.283" x2="2112.707" y2="436.153" style="stroke:#37474F;stroke-width:1.146;"/><polygon points="2108.124,424.695,2112.707,436.153,2117.291,424.695,2112.707,429.278" fill="#37474F" style="stroke:#37474F;stroke-width:1.146;stroke-linejoin:miter;stroke-miterlimit:10;"/><line x1="2112.707" y1="491.081" x2="2112.707" y2="496.811" style="stroke:#37474F;stroke-width:1.146;"/><line x1="2112.707" y1="496.811" x2="115.67" y2="496.811" style="stroke:#37474F;stroke-width:1.146;"/><line x1="115.67" y1="496.811" x2="115.67" y2="513.998" style="stroke:#37474F;stroke-width:1.146;"/><polygon points="111.087,502.54,115.67,513.998,120.253,502.54,115.67,507.123" fill="#37474F" style="stroke:#37474F;stroke-width:1.146;stroke-linejoin:miter;stroke-miterlimit:10;"/><line x1="2300.191" y1="264.457" x2="2300.191" y2="270.186" style="stroke:#37474F;stroke-width:1.146;"/><line x1="2300.191" y1="270.186" x2="904.888" y2="270.186" style="stroke:#37474F;stroke-width:1.146;"/><line x1="904.888" y1="270.186" x2="904.888" y2="287.374" style="stroke:#37474F;stroke-width:1.146;"/><polygon points="900.305,275.915,904.888,287.374,909.472,275.915,904.888,280.499" fill="#37474F" style="stroke:#37474F;stroke-width:1.146;stroke-linejoin:miter;stroke-miterlimit:10;"/><line x1="1505.562" y1="718.346" x2="1505.562" y2="733.259" style="stroke:#37474F;stroke-width:1.146;"/><line x1="1505.562" y1="733.259" x2="2300.191" y2="733.259" style="stroke:#37474F;stroke-width:1.146;"/><line x1="2300.191" y1="733.259" x2="2300.191" y2="753.312" style="stroke:#37474F;stroke-width:1.146;"/><polygon points="2295.608,741.853,2300.191,753.312,2304.774,741.853,2300.191,746.437" fill="#37474F" style="stroke:#37474F;stroke-width:1.146;stroke-linejoin:miter;stroke-miterlimit:10;"/><line x1="2300.191" y1="651.462" x2="2300.191" y2="665.443" style="stroke:#37474F;stroke-width:1.146;"/><line x1="2300.191" y1="665.443" x2="1505.562" y2="665.443" style="stroke:#37474F;stroke-width:1.146;"/><line x1="1505.562" y1="665.443" x2="1505.562" y2="679.423" style="stroke:#37474F;stroke-width:1.146;"/><polygon points="1500.979,667.965,1505.562,679.423,1510.146,667.965,1505.562,672.548" fill="#37474F" style="stroke:#37474F;stroke-width:1.146;stroke-linejoin:miter;stroke-miterlimit:10;"/><line x1="2300.191" y1="858.657" x2="2300.191" y2="864.386" style="stroke:#37474F;stroke-width:1.146;"/><line x1="2300.191" y1="864.386" x2="904.888" y2="864.386" style="stroke:#37474F;stroke-width:1.146;"/><line x1="904.888" y1="864.386" x2="904.888" y2="881.573" style="stroke:#37474F;stroke-width:1.146;"/><polygon points="900.305,870.115,904.888,881.573,909.472,870.115,904.888,874.698" fill="#37474F" style="stroke:#37474F;stroke-width:1.146;stroke-linejoin:miter;stroke-miterlimit:10;"/><line x1="904.888" y1="1140.209" x2="904.888" y2="1145.939" style="stroke:#37474F;stroke-width:1.146;"/><line x1="904.888" y1="1145.939" x2="1505.562" y2="1145.939" style="stroke:#37474F;stroke-width:1.146;"/><line x1="1505.562" y1="1145.939" x2="1505.562" y2="1169.947" style="stroke:#37474F;stroke-width:1.146;"/><polygon points="1500.979,1158.489,1505.562,1169.947,1510.146,1158.489,1505.562,1163.072" fill="#37474F" style="stroke:#37474F;stroke-width:1.146;stroke-linejoin:miter;stroke-miterlimit:10;"/><line x1="1505.562" y1="1224.876" x2="1505.562" y2="1248.884" style="stroke:#37474F;stroke-width:1.146;"/><line x1="1505.562" y1="1248.884" x2="904.888" y2="1248.884" style="stroke:#37474F;stroke-width:1.146;"/><line x1="904.888" y1="1248.884" x2="904.888" y2="1266.072" style="stroke:#37474F;stroke-width:1.146;"/><polygon points="900.305,1254.614,904.888,1266.072,909.472,1254.614,904.888,1259.197" fill="#37474F" style="stroke:#37474F;stroke-width:1.146;stroke-linejoin:miter;stroke-miterlimit:10;"/><line x1="904.888" y1="1762.981" x2="904.888" y2="1768.71" style="stroke:#37474F;stroke-width:1.146;"/><line x1="904.888" y1="1768.71" x2="2300.191" y2="1768.71" style="stroke:#37474F;stroke-width:1.146;"/><line x1="2300.191" y1="1768.71" x2="2300.191" y2="1785.898" style="stroke:#37474F;stroke-width:1.146;"/><polygon points="2295.608,1774.439,2300.191,1785.898,2304.774,1774.439,2300.191,1779.023" fill="#37474F" style="stroke:#37474F;stroke-width:1.146;stroke-linejoin:miter;stroke-miterlimit:10;"/><line x1="2300.191" y1="1840.826" x2="2300.191" y2="1846.555" style="stroke:#37474F;stroke-width:1.146;"/><line x1="2300.191" y1="1846.555" x2="303.153" y2="1846.555" style="stroke:#37474F;stroke-width:1.146;"/><line x1="303.153" y1="1846.555" x2="303.153" y2="1863.743" style="stroke:#37474F;stroke-width:1.146;"/><polygon points="298.57,1852.284,303.153,1863.743,307.737,1852.284,303.153,1856.868" fill="#37474F" style="stroke:#37474F;stroke-width:1.146;stroke-linejoin:miter;stroke-miterlimit:10;"/><text x="177.441" y="76.878" fill="#000" font-size="13.75" textLength="79.539" font-family="'DejaVu Sans'">Hub worker</text><text x="831.263" y="76.878" fill="#000" font-size="13.75" textLength="144.959" font-family="'DejaVu Sans'">Domain (core + hub)</text><text x="1651.516" y="76.878" fill="#000" font-size="13.75" textLength="27.184" font-family="'DejaVu Sans'">LLM</text><text x="2195.8" y="76.878" fill="#000" font-size="13.75" textLength="47.984" font-family="'DejaVu Sans'">hub.db</text><?plantuml-src XLPDSzis4BthLsnFbSQASyf5chJ3IdJDgRuYIdOFck5092J29W460EMeun_V1r0VJAfCBxO5BHQxxxrzwr-4J8iwuvGOUopulQZBecE5BJW5SHp6CRseBJ5BDkUKrzi1ASdffSxs9PUMjAfbXYF_TLfhxG_vrrfexW8wdLyfusd1D2Vp9ig2IMv8ICImJCWzAPrntNb_hBVqflGhr--Tzx4g6KAwgSAjE_Tg3wUJoHG_yU4-sxv_VyDOfcrdC2gOA5jbRsIN6SEDSPKa8kitvIPIzORNJ8E9OXbT0_kt-kXlv85fmN1QQVN2KokK7FwaLB6ZhiXmI-m4rma_k0yf7z215IAZFrVH37rlPCbalMEfhJNNX0v42jIbkgUIsJJ_lUT0HUuuc8R9QXcCmoHQXTDUXsZmn7KcKalXbtNq54p2sOgwWDI0YH_3Xnif5QMgh9XcLcdJnnkUGJ36YcA8V1SmaFfP2yjRU2GDnxSwwW4MO6zhGulbV36Fmt6o3EFvPBsAvhC-yGEk6Fz0couyCcNwrIihNez6OJWEnoxAM5LrU64uTMVp99ezp9VJmALoFT_66hcYIs7aq3IKQLLLFAETLcKZJD-y03e3W86gD4sZ6Ab7Zm33VsQIQlagrPlidqD4e-e6AR1ULdROuJ8Jkwju7DKFh1J5yVGsu2ZuXReZDxvqhrsKAfKkeO5_U0ACIr2hy9QbJxqVIOYauHhq_WqYHmw19Zsur7nRYoBxJeODP93rkRoRK0qUbQa4wYC3-kXpMz-OSAl5jhRSO6hkpbZGH_p53amKR0jj5i9OumHbwgeg7E2dJEVPuBkTg-d0aHjlPyFEGCYgjadEJ8uuzwlRUjQVR-GTNH8szvhuErZ7JaZXclGd_cdhUZAILIPN5hA4Vzrxegx13MSPK1qiQzdMFhtb7DUtokQ-TdIRCvHhhAxz86PkI6kFWkQcBa2fyovaPeLp3S_aeD54Trv1-Pzw6ua1uIdIPIqSuOh5STYH2jEanJwtu7NXLKHxZhHjz9it8SBCJS4PYqPHBit0ZQpbqc4iMSdx2CF9oJCIpNVt52mYubehFK1ggu_q9coEkBrMRyvfCrwmuv3OpY9roRubA9MZ6kF0GvptUGowW_8w_RG58IMdXo2QX6EdBt8T_KnYJyxX63fMjGNlnFO8CfPCclEI0LItFJIlcD1DbOwZiJ0fqzbbgnZQATrYxSC9t8syeZkyI3I5f1tfXZxyHklPNxFvymn90u1ufCF99tLTU4vJc9k0wrtctrsQpLV9rKWn_-UeZoLxGIMdf2uqciNhXuTe524m6GUheEzit0LT4kBl30RfQt9NdgFLOp8EdoBlP34k-76zFWW8d8sSBTqrQp12Fvh8GF9lbavs-_cMuJP6u78rbfsookrPG0_eb3EqooZMCisPt9--m1QWRQ7ILwUJFIOBBGTFO3puOnB-Jnqpk7USJ8FPEfYWpL4Ken8WxPORAvBJKZBSzje-XJGZV0MXZ9V1mug-GlwUHDoCrul590gNNWNdOVZWdSRL1W0Nw-NeCOXF8Ur1Eed2j3tAkdhFbkx_sJ6KdwsmcJpllpSR-x8EOuSjO7wAmkV_B82Vhiksoxb_FQxWkwrvwRT_Vl3EQTNWwBms-rGKPU8sD3ReT_lpvlRqk_DV?></g></svg>