<svg xmlns="http://www.w3.org/2000/svg" xmlns:xlink="http://www.w3.org/1999/xlink" version="1.1" data-diagram-type="ACTIVITY" style="width:2177px;height:1167px;background:#FFFFFF;" width="2177.083px" height="1167.604px" viewBox="0 0 2177 1167" zoomAndPan="magnify" preserveAspectRatio="none" contentStyleType="text/css"><?plantuml 1.2026.8?><defs/><g font-family="sans-serif" lengthAdjust="spacing"><g class="title" data-source-line="2"><text x="712.154" y="39.934" fill="#000" font-size="18.333" textLength="750.601" font-weight="700" font-family="'DejaVu Sans'">REBUILD_PROJECTION on both sides: one core resolver, two read models</text></g><rect x="22.917" y="64.115" width="2123.347" height="16.006" fill="none" style="stroke:none;"/><ellipse cx="661.172" cy="97.309" rx="11.458" ry="11.458" fill="#222" style="stroke:#222;stroke-width:1.146;"/><line x1="202.702" y1="131.684" x2="684.089" y2="131.684" style="stroke:#37474F;stroke-width:1.719;"/><rect x="73.717" y="154.6" width="257.969" height="38.923" fill="#F1F1F1" style="stroke:#181818;stroke-width:0.573;" rx="3.438" ry="3.438"/><text x="85.175" y="178.822" fill="#000" font-size="13.75" textLength="235.052" font-family="'DejaVu Sans'">REBUILD_PROJECTION job (article)</text><rect x="130.751" y="233.627" width="143.901" height="38.923" fill="#F1F1F1" style="stroke:#181818;stroke-width:0.573;" rx="3.438" ry="3.438"/><text x="142.21" y="257.848" fill="#000" font-size="13.75" textLength="120.984" font-family="'DejaVu Sans'">Load article_facts</text><rect x="54.7" y="312.654" width="296.003" height="38.923" fill="#F1F1F1" style="stroke:#181818;stroke-width:0.573;" rx="3.438" ry="3.438"/><text x="66.158" y="336.875" fill="#000" font-size="13.75" textLength="273.087" font-family="'DejaVu Sans'">Split identifier facts from attribute facts</text><rect x="29.792" y="852.556" width="345.82" height="54.928" fill="#F1F1F1" style="stroke:#181818;stroke-width:0.573;" rx="3.438" ry="3.438"/><text x="41.25" y="876.777" fill="#000" font-size="13.75" textLength="322.903" font-family="'DejaVu Sans'">attribute_origin (coarse: MASTER, EXTRACTED,</text><text x="41.25" y="892.783" fill="#000" font-size="13.75" textLength="308.381" font-family="'DejaVu Sans'">REFERENCE, PURCHASER), attribute_fact_ids</text><rect x="34.125" y="938.462" width="337.153" height="54.928" fill="#F1F1F1" style="stroke:#181818;stroke-width:0.573;" rx="3.438" ry="3.438"/><text x="45.584" y="962.684" fill="#000" font-size="13.75" textLength="314.236" font-family="'DejaVu Sans'">identifiers section: every live row per scheme</text><text x="45.584" y="978.689" fill="#000" font-size="13.75" textLength="267.205" font-family="'DejaVu Sans'">(no single winner), part of record_hash</text><path d="M321.48,1014.092 L321.48,1039.246 L298.563,1043.83 L321.48,1048.413 L321.48,1073.568 A0,0 0 0 0 321.48,1073.568 L646.841,1073.568 A0,0 0 0 0 646.841,1073.568 L646.841,1025.55 L635.382,1014.092 L321.48,1014.092 A0,0 0 0 0 321.48,1014.092" style="stroke:#C9A227;stroke-width:0.573;" fill="#FFF8E1"/><path d="M635.382,1014.092 L635.382,1025.55 L646.841,1025.55 L635.382,1014.092" style="stroke:#C9A227;stroke-width:0.573;" fill="#FFF8E1"/><text x="328.355" y="1032.584" fill="#000" font-size="13.75" textLength="260.901" font-family="'DejaVu Sans'">Read by GET /articles/{id} and by the</text><text x="328.355" y="1048.59" fill="#000" font-size="13.75" textLength="301.298" font-family="'DejaVu Sans'">RequirementBuilder (which never reads the</text><text x="328.355" y="1064.596" fill="#000" font-size="13.75" textLength="120.413" font-family="'DejaVu Sans'">article row itself).</text><rect x="106.84" y="1024.368" width="191.723" height="38.923" fill="#F1F1F1" style="stroke:#181818;stroke-width:0.573;" rx="3.438" ry="3.438"/><text x="118.298" y="1048.59" fill="#000" font-size="13.75" textLength="168.807" font-family="'DejaVu Sans'">Upsert article_projection</text><line x1="22.917" y1="64.115" x2="22.917" y2="1144.609" style="stroke:#000;stroke-width:1.719;"/><rect x="816.059" y="386.636" width="178.678" height="38.923" fill="#F1F1F1" style="stroke:#181818;stroke-width:0.573;" rx="3.438" ry="3.438"/><text x="827.517" y="410.857" fill="#000" font-size="13.75" textLength="155.762" font-family="'DejaVu Sans'">Drop superseded facts</text><rect x="747.363" y="465.663" width="316.071" height="70.934" fill="#F1F1F1" style="stroke:#181818;stroke-width:0.573;" rx="3.438" ry="3.438"/><text x="758.821" y="489.884" fill="#000" font-size="13.75" textLength="284.883" font-family="'DejaVu Sans'">Highest-precedence source per attribute:</text><text x="758.821" y="505.89" fill="#000" font-size="13.75" textLength="293.154" font-family="'DejaVu Sans'">PURCHASER_ANSWER > REFERENCE_ITEM</text><text x="758.821" y="521.896" fill="#000" font-size="13.75" textLength="256" font-family="'DejaVu Sans'">> HOSPITAL_MASTER > EXTRACTION</text><rect x="696.693" y="576.701" width="417.41" height="54.928" fill="#F1F1F1" style="stroke:#181818;stroke-width:0.573;" rx="3.438" ry="3.438"/><text x="708.151" y="600.922" fill="#000" font-size="13.75" textLength="394.493" font-family="'DejaVu Sans'">unknown_attributes: template attributes without a value;</text><text x="708.151" y="616.928" fill="#000" font-size="13.75" textLength="386.484" font-family="'DejaVu Sans'">unavailable_attributes: attributes marked UNAVAILABLE</text><rect x="756.668" y="671.734" width="297.46" height="38.923" fill="#F1F1F1" style="stroke:#181818;stroke-width:0.573;" rx="3.438" ry="3.438"/><text x="768.126" y="695.955" fill="#000" font-size="13.75" textLength="274.543" font-family="'DejaVu Sans'">record_hash over all resolved attributes</text><rect x="739.178" y="750.76" width="332.439" height="70.934" fill="#F1F1F1" style="stroke:#181818;stroke-width:0.573;" rx="3.438" ry="3.438"/><text x="750.637" y="774.982" fill="#000" font-size="13.75" textLength="309.523" font-family="'DejaVu Sans'">requirement_hash over the shareable subset</text><text x="750.637" y="790.988" fill="#000" font-size="13.75" textLength="297.565" font-family="'DejaVu Sans'">(shareable=true + unknown / unavailable /</text><text x="750.637" y="806.993" fill="#000" font-size="13.75" textLength="95.988" font-family="'DejaVu Sans'">withheld lists)</text><rect x="1190.122" y="521.625" width="178.678" height="38.923" fill="#F1F1F1" style="stroke:#181818;stroke-width:0.573;" rx="3.438" ry="3.438"/><text x="1201.58" y="545.846" fill="#000" font-size="13.75" textLength="155.762" font-family="'DejaVu Sans'">Drop superseded facts</text><rect x="1125.561" y="600.652" width="307.799" height="70.934" fill="#F1F1F1" style="stroke:#181818;stroke-width:0.573;" rx="3.438" ry="3.438"/><text x="1137.02" y="624.873" fill="#000" font-size="13.75" textLength="284.883" font-family="'DejaVu Sans'">Highest-precedence source per attribute:</text><text x="1137.02" y="640.879" fill="#000" font-size="13.75" textLength="271.616" font-family="'DejaVu Sans'">SUPPLIER_ANSWER > variant CATALOG</text><text x="1137.02" y="656.885" fill="#000" font-size="13.75" textLength="237.543" font-family="'DejaVu Sans'">> family CATALOG > EXTRACTION</text><rect x="1139.741" y="711.69" width="279.44" height="38.923" fill="#F1F1F1" style="stroke:#181818;stroke-width:0.573;" rx="3.438" ry="3.438"/><text x="1151.199" y="735.911" fill="#000" font-size="13.75" textLength="256.523" font-family="'DejaVu Sans'">Variant values override family values</text><rect x="1199.756" y="790.717" width="159.41" height="38.923" fill="#F1F1F1" style="stroke:#181818;stroke-width:0.573;" rx="3.438" ry="3.438"/><text x="1211.215" y="814.938" fill="#000" font-size="13.75" textLength="136.493" font-family="'DejaVu Sans'">unknown_attributes</text><rect x="1130.731" y="860.501" width="297.46" height="38.923" fill="#F1F1F1" style="stroke:#181818;stroke-width:0.573;" rx="3.438" ry="3.438"/><text x="1142.189" y="884.722" fill="#000" font-size="13.75" textLength="274.543" font-family="'DejaVu Sans'">record_hash over all resolved attributes</text><line x1="689.818" y1="64.115" x2="689.818" y2="1144.609" style="stroke:#000;stroke-width:1.719;"/><rect x="1564.209" y="162.661" width="199.74" height="54.928" fill="#F1F1F1" style="stroke:#181818;stroke-width:0.573;" rx="3.438" ry="3.438"/><text x="1575.667" y="186.883" fill="#000" font-size="13.75" textLength="176.823" font-family="'DejaVu Sans'">REBUILD_PROJECTION job</text><text x="1575.667" y="202.889" fill="#000" font-size="13.75" textLength="124.542" font-family="'DejaVu Sans'">(variant or family)</text><rect x="1532.946" y="313.155" width="262.266" height="38.923" fill="#F1F1F1" style="stroke:#181818;stroke-width:0.573;" rx="3.438" ry="3.438"/><text x="1544.404" y="337.376" fill="#000" font-size="13.75" textLength="239.349" font-family="'DejaVu Sans'">Rebuild every variant of the family</text><polygon points="1600.421,257.694,1727.737,257.694,1741.487,271.444,1727.737,285.194,1600.421,285.194,1586.671,271.444,1600.421,257.694" fill="#F1F1F1" style="stroke:#181818;stroke-width:0.573;stroke-linejoin:miter;stroke-miterlimit:10;"/><text x="1668.662" y="296.893" fill="#000" font-size="12.604" textLength="21.78" font-family="'DejaVu Sans'">yes</text><text x="1600.421" y="276.204" fill="#000" font-size="13.75" textLength="127.315" font-family="'DejaVu Sans'">Target is a family?</text><text x="1741.487" y="268.471" fill="#000" font-size="12.604" textLength="15.7" font-family="'DejaVu Sans'">no</text><polygon points="1664.079,374.994,1677.829,388.744,1664.079,402.494,1650.329,388.744,1664.079,374.994" fill="#F1F1F1" style="stroke:#181818;stroke-width:0.573;stroke-linejoin:miter;stroke-miterlimit:10;"/><rect x="1540.435" y="442.598" width="247.287" height="38.923" fill="#F1F1F1" style="stroke:#181818;stroke-width:0.573;" rx="3.438" ry="3.438"/><text x="1551.894" y="466.82" fill="#000" font-size="13.75" textLength="224.371" font-family="'DejaVu Sans'">Load variant facts + family facts</text><rect x="1490.071" y="930.401" width="348.016" height="54.928" fill="#F1F1F1" style="stroke:#181818;stroke-width:0.573;" rx="3.438" ry="3.438"/><text x="1501.53" y="954.622" fill="#000" font-size="13.75" textLength="251.421" font-family="'DejaVu Sans'">attribute_fact_ids; identifiers section</text><text x="1501.53" y="970.628" fill="#000" font-size="13.75" textLength="325.099" font-family="'DejaVu Sans'">(all schemes, GIN-indexed); render search_text</text><path d="M1803.251,1006.03 L1803.251,1031.185 L1780.334,1035.768 L1803.251,1040.352 L1803.251,1065.506 A0,0 0 0 0 1803.251,1065.506 L2139.495,1065.506 A0,0 0 0 0 2139.495,1065.506 L2139.495,1017.489 L2128.036,1006.03 L1803.251,1006.03 A0,0 0 0 0 1803.251,1006.03" style="stroke:#C9A227;stroke-width:0.573;" fill="#FFF8E1"/><path d="M2128.036,1006.03 L2128.036,1017.489 L2139.495,1017.489 L2128.036,1006.03" style="stroke:#C9A227;stroke-width:0.573;" fill="#FFF8E1"/><text x="1810.126" y="1024.523" fill="#000" font-size="13.75" textLength="305.447" font-family="'DejaVu Sans'">Read by POST /search, round snapshots and</text><text x="1810.126" y="1040.529" fill="#000" font-size="13.75" textLength="312.181" font-family="'DejaVu Sans'">catalog browsing. supplier record_hash feeds</text><text x="1810.126" y="1056.534" fill="#000" font-size="13.75" textLength="221.41" font-family="'DejaVu Sans'">input_hash (no-progress check).</text><rect x="1547.824" y="1016.307" width="232.51" height="38.923" fill="#F1F1F1" style="stroke:#181818;stroke-width:0.573;" rx="3.438" ry="3.438"/><text x="1559.282" y="1040.529" fill="#000" font-size="13.75" textLength="209.594" font-family="'DejaVu Sans'">Upsert item_search_projection</text><line x1="1443.673" y1="1096.484" x2="1664.079" y2="1096.484" style="stroke:#37474F;stroke-width:1.719;"/><ellipse cx="1472.319" cy="1132.005" rx="12.604" ry="12.604" fill="none" style="stroke:#222;stroke-width:1.146;"/><ellipse cx="1472.319" cy="1132.005" rx="6.875" ry="6.875" fill="#222" style="stroke:#222;stroke-width:1.146;"/><line x1="1437.944" y1="64.115" x2="1437.944" y2="1144.609" style="stroke:#000;stroke-width:1.719;"/><line x1="2145.224" y1="64.115" x2="2145.224" y2="1144.609" style="stroke:#000;stroke-width:1.719;"/><line x1="202.702" y1="193.523" x2="202.702" y2="233.627" style="stroke:#37474F;stroke-width:1.146;"/><polygon points="198.118,222.169,202.702,233.627,207.285,222.169,202.702,226.752" fill="#37474F" style="stroke:#37474F;stroke-width:1.146;stroke-linejoin:miter;stroke-miterlimit:10;"/><line x1="202.702" y1="272.549" x2="202.702" y2="312.654" style="stroke:#37474F;stroke-width:1.146;"/><polygon points="198.118,301.195,202.702,312.654,207.285,301.195,202.702,305.779" fill="#37474F" style="stroke:#37474F;stroke-width:1.146;stroke-linejoin:miter;stroke-miterlimit:10;"/><line x1="202.702" y1="907.484" x2="202.702" y2="938.462" style="stroke:#37474F;stroke-width:1.146;"/><polygon points="198.118,927.004,202.702,938.462,207.285,927.004,202.702,931.587" fill="#37474F" style="stroke:#37474F;stroke-width:1.146;stroke-linejoin:miter;stroke-miterlimit:10;"/><line x1="202.702" y1="993.391" x2="202.702" y2="1024.368" style="stroke:#37474F;stroke-width:1.146;"/><polygon points="198.118,1012.91,202.702,1024.368,207.285,1012.91,202.702,1017.493" fill="#37474F" style="stroke:#37474F;stroke-width:1.146;stroke-linejoin:miter;stroke-miterlimit:10;"/><line x1="202.702" y1="133.402" x2="202.702" y2="154.6" style="stroke:#37474F;stroke-width:1.146;"/><polygon points="198.118,143.142,202.702,154.6,207.285,143.142,202.702,147.725" fill="#37474F" style="stroke:#37474F;stroke-width:1.146;stroke-linejoin:miter;stroke-miterlimit:10;"/><line x1="661.172" y1="108.767" x2="661.172" y2="131.684" style="stroke:#37474F;stroke-width:1.146;"/><polygon points="656.589,120.225,661.172,131.684,665.755,120.225,661.172,124.809" fill="#37474F" style="stroke:#37474F;stroke-width:1.146;stroke-linejoin:miter;stroke-miterlimit:10;"/><line x1="905.398" y1="425.558" x2="905.398" y2="465.663" style="stroke:#37474F;stroke-width:1.146;"/><polygon points="900.815,454.204,905.398,465.663,909.981,454.204,905.398,458.788" fill="#37474F" style="stroke:#37474F;stroke-width:1.146;stroke-linejoin:miter;stroke-miterlimit:10;"/><line x1="905.398" y1="536.597" x2="905.398" y2="576.701" style="stroke:#37474F;stroke-width:1.146;"/><polygon points="900.815,565.243,905.398,576.701,909.981,565.243,905.398,569.826" fill="#37474F" style="stroke:#37474F;stroke-width:1.146;stroke-linejoin:miter;stroke-miterlimit:10;"/><line x1="905.398" y1="631.629" x2="905.398" y2="671.734" style="stroke:#37474F;stroke-width:1.146;"/><polygon points="900.815,660.275,905.398,671.734,909.981,660.275,905.398,664.859" fill="#37474F" style="stroke:#37474F;stroke-width:1.146;stroke-linejoin:miter;stroke-miterlimit:10;"/><line x1="905.398" y1="710.656" x2="905.398" y2="750.76" style="stroke:#37474F;stroke-width:1.146;"/><polygon points="900.815,739.302,905.398,750.76,909.981,739.302,905.398,743.885" fill="#37474F" style="stroke:#37474F;stroke-width:1.146;stroke-linejoin:miter;stroke-miterlimit:10;"/><line x1="1279.461" y1="560.547" x2="1279.461" y2="600.652" style="stroke:#37474F;stroke-width:1.146;"/><polygon points="1274.878,589.193,1279.461,600.652,1284.044,589.193,1279.461,593.777" fill="#37474F" style="stroke:#37474F;stroke-width:1.146;stroke-linejoin:miter;stroke-miterlimit:10;"/><line x1="1279.461" y1="671.586" x2="1279.461" y2="711.69" style="stroke:#37474F;stroke-width:1.146;"/><polygon points="1274.878,700.232,1279.461,711.69,1284.044,700.232,1279.461,704.815" fill="#37474F" style="stroke:#37474F;stroke-width:1.146;stroke-linejoin:miter;stroke-miterlimit:10;"/><line x1="1279.461" y1="750.613" x2="1279.461" y2="790.717" style="stroke:#37474F;stroke-width:1.146;"/><polygon points="1274.878,779.258,1279.461,790.717,1284.044,779.258,1279.461,783.842" fill="#37474F" style="stroke:#37474F;stroke-width:1.146;stroke-linejoin:miter;stroke-miterlimit:10;"/><line x1="1279.461" y1="829.639" x2="1279.461" y2="860.501" style="stroke:#37474F;stroke-width:1.146;"/><polygon points="1274.878,849.042,1279.461,860.501,1284.044,849.042,1279.461,853.626" fill="#37474F" style="stroke:#37474F;stroke-width:1.146;stroke-linejoin:miter;stroke-miterlimit:10;"/><line x1="1664.079" y1="285.194" x2="1664.079" y2="313.155" style="stroke:#37474F;stroke-width:1.146;"/><polygon points="1659.496,301.697,1664.079,313.155,1668.662,301.697,1664.079,306.28" fill="#37474F" style="stroke:#37474F;stroke-width:1.146;stroke-linejoin:miter;stroke-miterlimit:10;"/><line x1="1741.487" y1="271.444" x2="1806.67" y2="271.444" style="stroke:#37474F;stroke-width:1.146;"/><polygon points="1802.087,321.158,1806.67,332.616,1811.254,321.158,1806.67,325.741" fill="#37474F" style="stroke:#37474F;stroke-width:1.146;stroke-linejoin:miter;stroke-miterlimit:10;"/><line x1="1806.67" y1="271.444" x2="1806.67" y2="388.744" style="stroke:#37474F;stroke-width:1.146;"/><line x1="1806.67" y1="388.744" x2="1677.829" y2="388.744" style="stroke:#37474F;stroke-width:1.146;"/><polygon points="1689.287,384.161,1677.829,388.744,1689.287,393.327,1684.704,388.744" fill="#37474F" style="stroke:#37474F;stroke-width:1.146;stroke-linejoin:miter;stroke-miterlimit:10;"/><line x1="1664.079" y1="352.077" x2="1664.079" y2="374.994" style="stroke:#37474F;stroke-width:1.146;"/><polygon points="1659.496,363.536,1664.079,374.994,1668.662,363.536,1664.079,368.119" fill="#37474F" style="stroke:#37474F;stroke-width:1.146;stroke-linejoin:miter;stroke-miterlimit:10;"/><line x1="1664.079" y1="217.59" x2="1664.079" y2="257.694" style="stroke:#37474F;stroke-width:1.146;"/><polygon points="1659.496,246.236,1664.079,257.694,1668.662,246.236,1664.079,250.819" fill="#37474F" style="stroke:#37474F;stroke-width:1.146;stroke-linejoin:miter;stroke-miterlimit:10;"/><line x1="1664.079" y1="402.494" x2="1664.079" y2="442.598" style="stroke:#37474F;stroke-width:1.146;"/><polygon points="1659.496,431.14,1664.079,442.598,1668.662,431.14,1664.079,435.723" fill="#37474F" style="stroke:#37474F;stroke-width:1.146;stroke-linejoin:miter;stroke-miterlimit:10;"/><line x1="1664.079" y1="985.329" x2="1664.079" y2="1016.307" style="stroke:#37474F;stroke-width:1.146;"/><polygon points="1659.496,1004.849,1664.079,1016.307,1668.662,1004.849,1664.079,1009.432" fill="#37474F" style="stroke:#37474F;stroke-width:1.146;stroke-linejoin:miter;stroke-miterlimit:10;"/><line x1="1664.079" y1="1055.23" x2="1664.079" y2="1096.484" style="stroke:#37474F;stroke-width:1.146;"/><polygon points="1659.496,1085.026,1664.079,1096.484,1668.662,1085.026,1664.079,1089.609" fill="#37474F" style="stroke:#37474F;stroke-width:1.146;stroke-linejoin:miter;stroke-miterlimit:10;"/><line x1="1472.319" y1="1098.203" x2="1472.319" y2="1119.401" style="stroke:#37474F;stroke-width:1.146;"/><polygon points="1467.736,1107.943,1472.319,1119.401,1476.903,1107.943,1472.319,1112.526" fill="#37474F" style="stroke:#37474F;stroke-width:1.146;stroke-linejoin:miter;stroke-miterlimit:10;"/><line x1="202.702" y1="351.576" x2="202.702" y2="366.584" style="stroke:#37474F;stroke-width:1.146;"/><line x1="202.702" y1="366.584" x2="905.398" y2="366.584" style="stroke:#37474F;stroke-width:1.146;"/><line x1="905.398" y1="366.584" x2="905.398" y2="386.636" style="stroke:#37474F;stroke-width:1.146;"/><polygon points="900.815,375.178,905.398,386.636,909.981,375.178,905.398,379.761" fill="#37474F" style="stroke:#37474F;stroke-width:1.146;stroke-linejoin:miter;stroke-miterlimit:10;"/><line x1="905.398" y1="821.695" x2="905.398" y2="835.368" style="stroke:#37474F;stroke-width:1.146;"/><line x1="905.398" y1="835.368" x2="202.702" y2="835.368" style="stroke:#37474F;stroke-width:1.146;"/><line x1="202.702" y1="835.368" x2="202.702" y2="852.556" style="stroke:#37474F;stroke-width:1.146;"/><polygon points="198.118,841.098,202.702,852.556,207.285,841.098,202.702,845.681" fill="#37474F" style="stroke:#37474F;stroke-width:1.146;stroke-linejoin:miter;stroke-miterlimit:10;"/><line x1="1664.079" y1="481.521" x2="1664.079" y2="501.573" style="stroke:#37474F;stroke-width:1.146;"/><line x1="1664.079" y1="501.573" x2="1279.461" y2="501.573" style="stroke:#37474F;stroke-width:1.146;"/><line x1="1279.461" y1="501.573" x2="1279.461" y2="521.625" style="stroke:#37474F;stroke-width:1.146;"/><polygon points="1274.878,510.167,1279.461,521.625,1284.044,510.167,1279.461,514.75" fill="#37474F" style="stroke:#37474F;stroke-width:1.146;stroke-linejoin:miter;stroke-miterlimit:10;"/><line x1="1279.461" y1="899.423" x2="1279.461" y2="913.214" style="stroke:#37474F;stroke-width:1.146;"/><line x1="1279.461" y1="913.214" x2="1664.079" y2="913.214" style="stroke:#37474F;stroke-width:1.146;"/><line x1="1664.079" y1="913.214" x2="1664.079" y2="930.401" style="stroke:#37474F;stroke-width:1.146;"/><polygon points="1659.496,918.943,1664.079,930.401,1668.662,918.943,1664.079,923.526" fill="#37474F" style="stroke:#37474F;stroke-width:1.146;stroke-linejoin:miter;stroke-miterlimit:10;"/><line x1="684.089" y1="133.402" x2="684.089" y2="137.413" style="stroke:#37474F;stroke-width:1.146;"/><line x1="684.089" y1="137.413" x2="1664.079" y2="137.413" style="stroke:#37474F;stroke-width:1.146;"/><line x1="1664.079" y1="137.413" x2="1664.079" y2="162.661" style="stroke:#37474F;stroke-width:1.146;"/><polygon points="1659.496,151.203,1664.079,162.661,1668.662,151.203,1664.079,155.786" fill="#37474F" style="stroke:#37474F;stroke-width:1.146;stroke-linejoin:miter;stroke-miterlimit:10;"/><line x1="202.702" y1="1063.291" x2="202.702" y2="1080.443" style="stroke:#37474F;stroke-width:1.146;"/><line x1="202.702" y1="1080.443" x2="1443.673" y2="1080.443" style="stroke:#37474F;stroke-width:1.146;"/><line x1="1443.673" y1="1080.443" x2="1443.673" y2="1096.484" style="stroke:#37474F;stroke-width:1.146;"/><polygon points="1439.09,1085.026,1443.673,1096.484,1448.257,1085.026,1443.673,1089.609" fill="#37474F" style="stroke:#37474F;stroke-width:1.146;stroke-linejoin:miter;stroke-miterlimit:10;"/><text x="308.974" y="76.878" fill="#000" font-size="13.75" textLength="94.786" font-family="'DejaVu Sans'">Hospital node</text><text x="958.05" y="76.878" fill="#000" font-size="13.75" textLength="211.661" font-family="'DejaVu Sans'">equivalence-core FactResolver</text><text x="1747.994" y="76.878" fill="#000" font-size="13.75" textLength="87.18" font-family="'DejaVu Sans'">Supplier hub</text><?plantuml-src lLLDS-964BtpApgdG2ssxxYoAMnhRL8iK09szq2LQYIrqAo76MLw14l5-U_f6Gd1njvASia9cFwOVg_V6twIEbDrZf2GEogyblLEzPnq2Y6ExjQJwKEoYEU_HVUhoNm6HaDgN0aaSwGH_qJ8Z4MmI4RjqGx17Gp_4ZdiJ8wAUhsV8STC2KwYWzmfeP50wf0ZzHQCpT7sNfuCLT891PhBNdel-7ijzqAXpl0gtF11P2vkR-7uigug9T52MQSlhyh92Ujwn1ck1_3tAC3e3MXVJGfzBfEPmi6jJveQXj6U90NVJ-5uwTi24w2TBFm88GI5DJiGpbcPrWwXo_ydADpnmPeAgAxG4kQOdsj7Jt9R8hchocB68Mu1P6hB7vnylcsqqOjrVFyqNaPnCfujFqSnlEVzVOZYQ7OV9PDLz76ZtyFJVBcOhCRJvEDukGevqPTLF0u4XFjg_QpDGITTPrwomrsb14Cw7y91kjBK3WGmiXflDxhMOY-a4YbpTLbzKRGJzfdHhMVZJ-F9T7mtZSAT38r5a9I2IZ1x3qkfaw3oY_escTcqk6FoBofSoRoKh35_FJEP4hgDxdT7lpXR8xo35XxSmCMuSBFH7a-9AWSboL5O_nkgwMP9Z9LR5d4_Cu9tDeA6p-69pkXXkD4T_KFebZCOdW45IIKoRu2TzKH0c3bfz0YGmHrvfZqxp1p2pYah6Js3quPTgBSy_q5gZPPRLonMC0LSC1fwhoj2ZfoaN5dpjRd1HxNXrJASqbi58FRUJO_m6AtWfgsWcpza_YS87I9CTflPhUAkbefj3Fr3ARCIj9yxE9owxBPLm24TeIe6rnn0xkadQCmAOYkazkH_x-yVEfPvs0ihXMRSteWxgOvXUxA0_ahOBR9JYMNQX7uT-7buRqUaGHXh56FgXs-fxfeLGLDDbU_7Jna2SpvePfP5zq2SIffNu5rRyx_xVxbUBAQJI_kV1hiVi-FdZzx_xMpjoMlxVsfBWgafUCkoC4zrpV4F7eh_xENNEtx36l26BtZflctZ11h2usHs9NMEtp0VtF9jsakHKDYiJ1n-SvSUaFoQ9MtiN_bWCL-o4PgA8QktPi6I5XMLXjVDbWZPcU27mcmXPNbxLrxxTJRWBYaf47CA1L9NTVk2iQfulsRBD14mfkpvUsVuByrV6JbJzVu2?></g></svg>