<svg xmlns="http://www.w3.org/2000/svg" xmlns:xlink="http://www.w3.org/1999/xlink" version="1.1" data-diagram-type="ACTIVITY" style="width:3665px;height:2147px;background:#FFFFFF;" width="3665.521px" height="2147.292px" viewBox="0 0 3665 2147" zoomAndPan="magnify" preserveAspectRatio="none" contentStyleType="text/css"><?plantuml 1.2026.8?><defs/><g font-family="sans-serif" lengthAdjust="spacing"><g class="title" data-source-line="2"><text x="1391.431" y="39.934" fill="#000" font-size="18.333" textLength="880.743" font-weight="700" font-family="'DejaVu Sans'">New attribute: from a free question to a category definition shared with all hospitals</text></g><rect x="22.917" y="64.115" width="3612.042" height="16.006" fill="none" style="stroke:none;"/><ellipse cx="192.218" cy="97.309" rx="11.458" ry="11.458" fill="#222" style="stroke:#222;stroke-width:1.146;"/><rect x="29.792" y="131.684" width="324.853" height="70.934" fill="#F1F1F1" style="stroke:#181818;stroke-width:0.573;" rx="3.438" ry="3.438"/><text x="41.25" y="155.905" fill="#000" font-size="13.75" textLength="223.585" font-family="'DejaVu Sans'">Add free question in review step</text><text x="41.25" y="171.911" fill="#000" font-size="13.75" textLength="228.809" font-family="'DejaVu Sans'">"Does the pack include a peel-off</text><text x="41.25" y="187.917" fill="#000" font-size="13.75" textLength="301.936" font-family="'DejaVu Sans'">documentation label?" (attribute_key NULL)</text><rect x="54.089" y="695.097" width="276.258" height="54.928" fill="#F1F1F1" style="stroke:#181818;stroke-width:0.573;" rx="3.438" ry="3.438"/><text x="65.547" y="719.319" fill="#000" font-size="13.75" textLength="145.208" font-family="'DejaVu Sans'">POST send-questions</text><text x="65.547" y="735.325" fill="#000" font-size="13.75" textLength="253.341" font-family="'DejaVu Sans'">(409 while any proposal is PENDING)</text><line x1="22.917" y1="64.115" x2="22.917" y2="2124.224" style="stroke:#000;stroke-width:1.719;"/><rect x="652.35" y="225.534" width="348.855" height="54.928" fill="#F1F1F1" style="stroke:#181818;stroke-width:0.573;" rx="3.438" ry="3.438"/><text x="663.808" y="249.756" fill="#000" font-size="13.75" textLength="325.938" font-family="'DejaVu Sans'">Question DRAFT; attribute_proposals PENDING;</text><text x="663.808" y="265.762" fill="#000" font-size="13.75" textLength="213.091" font-family="'DejaVu Sans'">enqueue PROPOSE_ATTRIBUTE</text><polygon points="415.894,383.498,606.554,383.498,620.304,397.248,606.554,410.998,415.894,410.998,402.144,397.248,415.894,383.498" fill="#F1F1F1" style="stroke:#181818;stroke-width:0.573;stroke-linejoin:miter;stroke-miterlimit:10;"/><text x="515.807" y="422.698" fill="#000" font-size="12.604" textLength="69.92" font-family="'DejaVu Sans'">IDENTIFIER</text><text x="415.894" y="402.008" fill="#000" font-size="13.75" textLength="190.66" font-family="'DejaVu Sans'">Asks for a product number?</text><rect x="366.103" y="447.333" width="290.243" height="54.928" fill="#F1F1F1" style="stroke:#181818;stroke-width:0.573;" rx="3.438" ry="3.438"/><text x="377.561" y="471.555" fill="#000" font-size="13.75" textLength="265.379" font-family="'DejaVu Sans'">Question takes the identifier definition</text><text x="377.561" y="487.56" fill="#000" font-size="13.75" textLength="267.326" font-family="'DejaVu Sans'">(kind = IDENTIFIER); proposal ROUTED</text><rect x="379.765" y="535.934" width="262.917" height="70.934" fill="#F1F1F1" style="stroke:#181818;stroke-width:0.573;" rx="3.438" ry="3.438"/><text x="391.224" y="560.155" fill="#000" font-size="13.75" textLength="240.001" font-family="'DejaVu Sans'">Answer becomes an identifier fact:</text><text x="391.224" y="576.161" fill="#000" font-size="13.75" textLength="233.575" font-family="'DejaVu Sans'">no criticality, never in a template,</text><text x="391.224" y="592.167" fill="#000" font-size="13.75" textLength="193.165" font-family="'DejaVu Sans'">never compared (D50, D51)</text><ellipse cx="511.224" cy="659.576" rx="12.604" ry="12.604" fill="none" style="stroke:#222;stroke-width:1.146;"/><ellipse cx="511.224" cy="659.576" rx="6.875" ry="6.875" fill="#222" style="stroke:#222;stroke-width:1.146;"/><polygon points="693.409,383.498,902.748,383.498,916.498,397.248,902.748,410.998,693.409,410.998,679.659,397.248,693.409,383.498" fill="#F1F1F1" style="stroke:#181818;stroke-width:0.573;stroke-linejoin:miter;stroke-miterlimit:10;"/><text x="802.662" y="422.698" fill="#000" font-size="12.604" textLength="21.78" font-family="'DejaVu Sans'">yes</text><text x="693.409" y="402.008" fill="#000" font-size="13.75" textLength="209.338" font-family="'DejaVu Sans'">Matches an existing attribute?</text><text x="916.498" y="394.276" fill="#000" font-size="12.604" textLength="15.7" font-family="'DejaVu Sans'">no</text><rect x="679.262" y="447.333" width="237.633" height="54.928" fill="#F1F1F1" style="stroke:#181818;stroke-width:0.573;" rx="3.438" ry="3.438"/><text x="690.72" y="471.555" fill="#000" font-size="13.75" textLength="214.716" font-family="'DejaVu Sans'">Question gets the existing key;</text><text x="690.72" y="487.56" fill="#000" font-size="13.75" textLength="132.599" font-family="'DejaVu Sans'">proposal MATCHED</text><rect x="713.392" y="535.934" width="169.373" height="38.923" fill="#F1F1F1" style="stroke:#181818;stroke-width:0.573;" rx="3.438" ry="3.438"/><text x="724.85" y="560.155" fill="#000" font-size="13.75" textLength="146.456" font-family="'DejaVu Sans'">Normal question flow</text><ellipse cx="798.079" cy="627.565" rx="12.604" ry="12.604" fill="none" style="stroke:#222;stroke-width:1.146;"/><ellipse cx="798.079" cy="627.565" rx="6.875" ry="6.875" fill="#222" style="stroke:#222;stroke-width:1.146;"/><rect x="939.812" y="525.178" width="347.64" height="54.928" fill="#F1F1F1" style="stroke:#181818;stroke-width:0.573;" rx="3.438" ry="3.438"/><text x="951.27" y="549.4" fill="#000" font-size="13.75" textLength="241.901" font-family="'DejaVu Sans'">Proposal NEW: peel_off_label, bool,</text><text x="951.27" y="565.406" fill="#000" font-size="13.75" textLength="324.723" font-family="'DejaVu Sans'">DE/EN labels; question expected_answer typed</text><polygon points="700.412,772.942,953.142,772.942,966.892,786.692,953.142,800.442,700.412,800.442,686.662,786.692,700.412,772.942" fill="#F1F1F1" style="stroke:#181818;stroke-width:0.573;stroke-linejoin:miter;stroke-miterlimit:10;"/><text x="700.412" y="791.452" fill="#000" font-size="13.75" textLength="252.73" font-family="'DejaVu Sans'">Question withdrawn before sending?</text><text x="664.882" y="783.72" fill="#000" font-size="12.604" textLength="21.78" font-family="'DejaVu Sans'">yes</text><text x="966.892" y="783.72" fill="#000" font-size="12.604" textLength="15.7" font-family="'DejaVu Sans'">no</text><rect x="501.817" y="811.901" width="300.985" height="38.923" fill="#F1F1F1" style="stroke:#181818;stroke-width:0.573;" rx="3.438" ry="3.438"/><text x="513.276" y="836.122" fill="#000" font-size="13.75" textLength="278.068" font-family="'DejaVu Sans'">Proposal discarded; no attribute created</text><ellipse cx="652.31" cy="902.35" rx="12.604" ry="12.604" fill="none" style="stroke:#222;stroke-width:1.146;"/><ellipse cx="652.31" cy="902.35" rx="6.875" ry="6.875" fill="#222" style="stroke:#222;stroke-width:1.146;"/><rect x="825.719" y="811.901" width="351.05" height="54.928" fill="#F1F1F1" style="stroke:#181818;stroke-width:0.573;" rx="3.438" ry="3.438"/><text x="837.177" y="836.122" fill="#000" font-size="13.75" textLength="270.508" font-family="'DejaVu Sans'">attribute_definitions row PROVISIONAL;</text><text x="837.177" y="852.128" fill="#000" font-size="13.75" textLength="328.134" font-family="'DejaVu Sans'">question SENT with attribute_key peel_off_label</text><rect x="652.195" y="999.71" width="349.164" height="54.928" fill="#F1F1F1" style="stroke:#181818;stroke-width:0.573;" rx="3.438" ry="3.438"/><text x="663.653" y="1023.931" fill="#000" font-size="13.75" textLength="326.247" font-family="'DejaVu Sans'">item_facts (FAMILY scope, SUPPLIER_ANSWER);</text><text x="663.653" y="1039.937" fill="#000" font-size="13.75" textLength="319.016" font-family="'DejaVu Sans'">REBUILD_PROJECTION -> additional_attributes</text><rect x="647.774" y="1077.555" width="358.006" height="70.934" fill="#F1F1F1" style="stroke:#181818;stroke-width:0.573;" rx="3.438" ry="3.438"/><text x="659.232" y="1101.776" fill="#000" font-size="13.75" textLength="335.089" font-family="'DejaVu Sans'">Visible to ALL hospitals as additional information</text><text x="659.232" y="1117.782" fill="#000" font-size="13.75" textLength="332.853" font-family="'DejaVu Sans'">(catalog, search candidates, comparison views);</text><text x="659.232" y="1133.788" fill="#000" font-size="13.75" textLength="288.052" font-family="'DejaVu Sans'">not filtered, not judged, never auto-asked</text><rect x="683.274" y="1564.341" width="287.007" height="54.928" fill="#F1F1F1" style="stroke:#181818;stroke-width:0.573;" rx="3.438" ry="3.438"/><text x="694.732" y="1588.563" fill="#000" font-size="13.75" textLength="264.09" font-family="'DejaVu Sans'">attribute APPROVED; definition served</text><text x="694.732" y="1604.568" fill="#000" font-size="13.75" textLength="250.327" font-family="'DejaVu Sans'">by GET /templates (no signing, D52)</text><rect x="584.073" y="1892.909" width="485.408" height="54.928" fill="#F1F1F1" style="stroke:#181818;stroke-width:0.573;" rx="3.438" ry="3.438"/><text x="595.531" y="1917.13" fill="#000" font-size="13.75" textLength="390.284" font-family="'DejaVu Sans'">New assessments: major UNKNOWN on the hospital side</text><text x="595.531" y="1933.136" fill="#000" font-size="13.75" textLength="462.491" font-family="'DejaVu Sans'">-> PURCHASER question; BD value already known -> BD not asked</text><rect x="642.01" y="1970.754" width="369.533" height="54.928" fill="#F1F1F1" style="stroke:#181818;stroke-width:0.573;" rx="3.438" ry="3.438"/><text x="653.469" y="1994.975" fill="#000" font-size="13.75" textLength="281.895" font-family="'DejaVu Sans'">Open assessments pick it up next round;</text><text x="653.469" y="2010.981" fill="#000" font-size="13.75" textLength="346.617" font-family="'DejaVu Sans'">rounds already judged keep their stored definition</text><ellipse cx="826.777" cy="2111.62" rx="12.604" ry="12.604" fill="none" style="stroke:#222;stroke-width:1.146;"/><ellipse cx="826.777" cy="2111.62" rx="6.875" ry="6.875" fill="#222" style="stroke:#222;stroke-width:1.146;"/><line x1="359.228" y1="64.115" x2="359.228" y2="2124.224" style="stroke:#000;stroke-width:1.719;"/><path d="M1660.979,301.106 L1660.979,326.26 L1638.063,330.844 L1660.979,335.427 L1660.979,360.582 A0,0 0 0 0 1660.979,360.582 L1971.67,360.582 A0,0 0 0 0 1971.67,360.582 L1971.67,312.564 L1960.212,301.106 L1660.979,301.106 A0,0 0 0 0 1660.979,301.106" style="stroke:#C9A227;stroke-width:0.573;" fill="#FFF8E1"/><path d="M1960.212,301.106 L1960.212,312.564 L1971.67,312.564 L1960.212,301.106" style="stroke:#C9A227;stroke-width:0.573;" fill="#FFF8E1"/><text x="1667.854" y="319.598" fill="#000" font-size="13.75" textLength="204.115" font-family="'DejaVu Sans'">Output has no criticality field.</text><text x="1667.854" y="335.604" fill="#000" font-size="13.75" textLength="279.827" font-family="'DejaVu Sans'">Labels must be neutral (validator rejects</text><text x="1667.854" y="351.61" fill="#000" font-size="13.75" textLength="286.628" font-family="'DejaVu Sans'">tenant names, aliases, brands, products).</text><rect x="1298.91" y="303.38" width="339.153" height="54.928" fill="#F1F1F1" style="stroke:#181818;stroke-width:0.573;" rx="3.438" ry="3.438"/><text x="1310.368" y="327.601" fill="#000" font-size="13.75" textLength="203.679" font-family="'DejaVu Sans'">propose_attribute (Sonnet 5):</text><text x="1310.368" y="343.607" fill="#000" font-size="13.75" textLength="316.237" font-family="'DejaVu Sans'">question + category template + registry keys</text><line x1="1292.035" y1="64.115" x2="1292.035" y2="2124.224" style="stroke:#000;stroke-width:1.719;"/><rect x="1984.274" y="937.871" width="282.233" height="38.923" fill="#F1F1F1" style="stroke:#181818;stroke-width:0.573;" rx="3.438" ry="3.438"/><text x="1995.733" y="962.092" fill="#000" font-size="13.75" textLength="259.316" font-family="'DejaVu Sans'">Answer "yes", applies to whole family</text><line x1="1977.399" y1="64.115" x2="1977.399" y2="2124.224" style="stroke:#000;stroke-width:1.719;"/><rect x="2715.74" y="1171.406" width="136.307" height="38.923" fill="#F1F1F1" style="stroke:#181818;stroke-width:0.573;" rx="3.438" ry="3.438"/><text x="2727.199" y="1195.627" fill="#000" font-size="13.75" textLength="113.391" font-family="'DejaVu Sans'">Review proposal</text><polygon points="2428.616,1233.245,2494.452,1233.245,2508.202,1246.995,2494.452,1260.745,2428.616,1260.745,2414.866,1246.995,2428.616,1233.245" fill="#F1F1F1" style="stroke:#181818;stroke-width:0.573;stroke-linejoin:miter;stroke-miterlimit:10;"/><text x="2466.118" y="1272.445" fill="#000" font-size="12.604" textLength="51.832" font-family="'DejaVu Sans'">approve</text><text x="2428.616" y="1251.755" fill="#000" font-size="13.75" textLength="65.836" font-family="'DejaVu Sans'">Decision?</text><rect x="2277.966" y="1297.08" width="367.137" height="70.934" fill="#F1F1F1" style="stroke:#181818;stroke-width:0.573;" rx="3.438" ry="3.438"/><text x="2289.424" y="1321.301" fill="#000" font-size="13.75" textLength="217.872" font-family="'DejaVu Sans'">Set final key, labels, synonyms;</text><text x="2289.424" y="1337.307" fill="#000" font-size="13.75" textLength="344.22" font-family="'DejaVu Sans'">set CRITICALITY (e.g. major) and comparison rule;</text><text x="2289.424" y="1353.313" fill="#000" font-size="13.75" textLength="123.421" font-family="'DejaVu Sans'">set shareable flag</text><rect x="2310.307" y="1408.118" width="302.455" height="54.928" fill="#F1F1F1" style="stroke:#181818;stroke-width:0.573;" rx="3.438" ry="3.438"/><text x="2321.765" y="1432.34" fill="#000" font-size="13.75" textLength="279.539" font-family="'DejaVu Sans'">Add to the syringe_single_use definition;</text><text x="2321.765" y="1448.346" fill="#000" font-size="13.75" textLength="224.015" font-family="'DejaVu Sans'">new definition_hash, updated_at</text><polygon points="2790.014,1233.245,2855.85,1233.245,2869.6,1246.995,2855.85,1260.745,2790.014,1260.745,2776.264,1246.995,2790.014,1233.245" fill="#F1F1F1" style="stroke:#181818;stroke-width:0.573;stroke-linejoin:miter;stroke-miterlimit:10;"/><text x="2827.515" y="1272.445" fill="#000" font-size="12.604" textLength="40.97" font-family="'DejaVu Sans'">merge</text><text x="2790.014" y="1251.755" fill="#000" font-size="13.75" textLength="65.836" font-family="'DejaVu Sans'">Decision?</text><text x="2869.6" y="1244.023" fill="#000" font-size="12.604" textLength="36.065" font-family="'DejaVu Sans'">reject</text><rect x="2656.561" y="1297.08" width="332.741" height="70.934" fill="#F1F1F1" style="stroke:#181818;stroke-width:0.573;" rx="3.438" ry="3.438"/><text x="2668.019" y="1321.301" fill="#000" font-size="13.75" textLength="158.702" font-family="'DejaVu Sans'">Merge (deferred, D55):</text><text x="2668.019" y="1337.307" fill="#000" font-size="13.75" textLength="309.825" font-family="'DejaVu Sans'">hub would re-add facts under the target key,</text><text x="2668.019" y="1353.313" fill="#000" font-size="13.75" textLength="255.375" font-family="'DejaVu Sans'">supersede old facts, set merged_into</text><rect x="3000.761" y="1340.698" width="289.061" height="70.934" fill="#F1F1F1" style="stroke:#181818;stroke-width:0.573;" rx="3.438" ry="3.438"/><text x="3012.219" y="1364.919" fill="#000" font-size="13.75" textLength="158.783" font-family="'DejaVu Sans'">Reject (deferred, D55):</text><text x="3012.219" y="1380.925" fill="#000" font-size="13.75" textLength="266.144" font-family="'DejaVu Sans'">attribute would become DEPRECATED;</text><text x="3012.219" y="1396.931" fill="#000" font-size="13.75" textLength="131.021" font-family="'DejaVu Sans'">facts kept for audit</text><polygon points="2715.104,1508.88,2852.684,1508.88,2866.434,1522.63,2852.684,1536.38,2715.104,1536.38,2701.354,1522.63,2715.104,1508.88" fill="#F1F1F1" style="stroke:#181818;stroke-width:0.573;stroke-linejoin:miter;stroke-miterlimit:10;"/><text x="2788.477" y="1548.08" fill="#000" font-size="12.604" textLength="21.78" font-family="'DejaVu Sans'">yes</text><text x="2715.104" y="1527.39" fill="#000" font-size="13.75" textLength="137.581" font-family="'DejaVu Sans'">Definition changed?</text><text x="2866.434" y="1519.658" fill="#000" font-size="12.604" textLength="15.7" font-family="'DejaVu Sans'">no</text><polygon points="2783.894,2048.599,2797.644,2062.349,2783.894,2076.099,2770.144,2062.349,2783.894,2048.599" fill="#F1F1F1" style="stroke:#181818;stroke-width:0.573;stroke-linejoin:miter;stroke-miterlimit:10;"/><line x1="2271.091" y1="64.115" x2="2271.091" y2="2124.224" style="stroke:#000;stroke-width:1.719;"/><rect x="3301.28" y="1642.186" width="328.055" height="54.928" fill="#F1F1F1" style="stroke:#181818;stroke-width:0.573;" rx="3.438" ry="3.438"/><text x="3312.738" y="1666.408" fill="#000" font-size="13.75" textLength="305.139" font-family="'DejaVu Sans'">After token exchange: compare updated_at;</text><text x="3312.738" y="1682.413" fill="#000" font-size="13.75" textLength="274.926" font-family="'DejaVu Sans'">fetch definition; PUT /templates at node</text><rect x="3319.706" y="1720.031" width="291.203" height="54.928" fill="#F1F1F1" style="stroke:#181818;stroke-width:0.573;" rx="3.438" ry="3.438"/><text x="3331.165" y="1744.253" fill="#000" font-size="13.75" textLength="268.286" font-family="'DejaVu Sans'">Validate against the core model, store,</text><text x="3331.165" y="1760.258" fill="#000" font-size="13.75" textLength="193.568" font-family="'DejaVu Sans'">rebuild category projections</text><rect x="3311.311" y="1815.064" width="307.994" height="54.928" fill="#F1F1F1" style="stroke:#181818;stroke-width:0.573;" rx="3.438" ry="3.438"/><text x="3322.769" y="1839.285" fill="#000" font-size="13.75" textLength="285.078" font-family="'DejaVu Sans'">peel_off_label now in unknown_attributes</text><text x="3322.769" y="1855.291" fill="#000" font-size="13.75" textLength="267.917" font-family="'DejaVu Sans'">(unless in EGRESS_DENY_ATTRIBUTES)</text><line x1="3294.405" y1="64.115" x2="3294.405" y2="2124.224" style="stroke:#000;stroke-width:1.719;"/><line x1="3633.919" y1="64.115" x2="3633.919" y2="2124.224" style="stroke:#000;stroke-width:1.719;"/><line x1="192.218" y1="108.767" x2="192.218" y2="131.684" style="stroke:#37474F;stroke-width:1.146;"/><polygon points="187.635,120.225,192.218,131.684,196.801,120.225,192.218,124.809" fill="#37474F" style="stroke:#37474F;stroke-width:1.146;stroke-linejoin:miter;stroke-miterlimit:10;"/><line x1="511.224" y1="502.262" x2="511.224" y2="535.934" style="stroke:#37474F;stroke-width:1.146;"/><polygon points="506.641,524.476,511.224,535.934,515.807,524.476,511.224,529.059" fill="#37474F" style="stroke:#37474F;stroke-width:1.146;stroke-linejoin:miter;stroke-miterlimit:10;"/><line x1="511.224" y1="606.868" x2="511.224" y2="646.972" style="stroke:#37474F;stroke-width:1.146;"/><polygon points="506.641,635.514,511.224,646.972,515.807,635.514,511.224,640.097" fill="#37474F" style="stroke:#37474F;stroke-width:1.146;stroke-linejoin:miter;stroke-miterlimit:10;"/><line x1="798.079" y1="502.262" x2="798.079" y2="535.934" style="stroke:#37474F;stroke-width:1.146;"/><polygon points="793.495,524.476,798.079,535.934,802.662,524.476,798.079,529.059" fill="#37474F" style="stroke:#37474F;stroke-width:1.146;stroke-linejoin:miter;stroke-miterlimit:10;"/><line x1="798.079" y1="574.856" x2="798.079" y2="614.961" style="stroke:#37474F;stroke-width:1.146;"/><polygon points="793.495,603.502,798.079,614.961,802.662,603.502,798.079,608.086" fill="#37474F" style="stroke:#37474F;stroke-width:1.146;stroke-linejoin:miter;stroke-miterlimit:10;"/><line x1="511.224" y1="410.998" x2="511.224" y2="447.333" style="stroke:#37474F;stroke-width:1.146;"/><polygon points="506.641,435.875,511.224,447.333,515.807,435.875,511.224,440.458" fill="#37474F" style="stroke:#37474F;stroke-width:1.146;stroke-linejoin:miter;stroke-miterlimit:10;"/><line x1="798.079" y1="410.998" x2="798.079" y2="447.333" style="stroke:#37474F;stroke-width:1.146;"/><polygon points="793.495,435.875,798.079,447.333,802.662,435.875,798.079,440.458" fill="#37474F" style="stroke:#37474F;stroke-width:1.146;stroke-linejoin:miter;stroke-miterlimit:10;"/><line x1="620.304" y1="397.248" x2="679.659" y2="397.248" style="stroke:#37474F;stroke-width:1.146;"/><polygon points="668.201,392.665,679.659,397.248,668.201,401.832,672.784,397.248" fill="#37474F" style="stroke:#37474F;stroke-width:1.146;stroke-linejoin:miter;stroke-miterlimit:10;"/><line x1="1468.486" y1="358.308" x2="1468.486" y2="366.311" style="stroke:#37474F;stroke-width:1.146;"/><line x1="1468.486" y1="366.311" x2="511.224" y2="366.311" style="stroke:#37474F;stroke-width:1.146;"/><line x1="511.224" y1="366.311" x2="511.224" y2="383.498" style="stroke:#37474F;stroke-width:1.146;"/><polygon points="506.641,372.04,511.224,383.498,515.807,372.04,511.224,376.623" fill="#37474F" style="stroke:#37474F;stroke-width:1.146;stroke-linejoin:miter;stroke-miterlimit:10;"/><line x1="916.498" y1="397.248" x2="1113.631" y2="397.248" style="stroke:#37474F;stroke-width:1.146;"/><line x1="1113.631" y1="397.248" x2="1113.631" y2="525.178" style="stroke:#37474F;stroke-width:1.146;"/><polygon points="1109.048,513.72,1113.631,525.178,1118.215,513.72,1113.631,518.303" fill="#37474F" style="stroke:#37474F;stroke-width:1.146;stroke-linejoin:miter;stroke-miterlimit:10;"/><line x1="1113.631" y1="580.107" x2="1113.631" y2="677.91" style="stroke:#37474F;stroke-width:1.146;"/><line x1="1113.631" y1="677.91" x2="192.218" y2="677.91" style="stroke:#37474F;stroke-width:1.146;"/><line x1="192.218" y1="677.91" x2="192.218" y2="695.097" style="stroke:#37474F;stroke-width:1.146;"/><polygon points="187.635,683.639,192.218,695.097,196.801,683.639,192.218,688.222" fill="#37474F" style="stroke:#37474F;stroke-width:1.146;stroke-linejoin:miter;stroke-miterlimit:10;"/><line x1="652.31" y1="850.823" x2="652.31" y2="889.746" style="stroke:#37474F;stroke-width:1.146;"/><polygon points="647.726,878.287,652.31,889.746,656.893,878.287,652.31,882.871" fill="#37474F" style="stroke:#37474F;stroke-width:1.146;stroke-linejoin:miter;stroke-miterlimit:10;"/><line x1="686.662" y1="786.692" x2="652.31" y2="786.692" style="stroke:#37474F;stroke-width:1.146;"/><line x1="652.31" y1="786.692" x2="652.31" y2="811.901" style="stroke:#37474F;stroke-width:1.146;"/><polygon points="647.726,800.442,652.31,811.901,656.893,800.442,652.31,805.026" fill="#37474F" style="stroke:#37474F;stroke-width:1.146;stroke-linejoin:miter;stroke-miterlimit:10;"/><line x1="966.892" y1="786.692" x2="1001.244" y2="786.692" style="stroke:#37474F;stroke-width:1.146;"/><line x1="1001.244" y1="786.692" x2="1001.244" y2="811.901" style="stroke:#37474F;stroke-width:1.146;"/><polygon points="996.661,800.442,1001.244,811.901,1005.827,800.442,1001.244,805.026" fill="#37474F" style="stroke:#37474F;stroke-width:1.146;stroke-linejoin:miter;stroke-miterlimit:10;"/><line x1="1001.244" y1="866.829" x2="1001.244" y2="920.683" style="stroke:#37474F;stroke-width:1.146;"/><line x1="1001.244" y1="920.683" x2="2125.391" y2="920.683" style="stroke:#37474F;stroke-width:1.146;"/><line x1="2125.391" y1="920.683" x2="2125.391" y2="937.871" style="stroke:#37474F;stroke-width:1.146;"/><polygon points="2120.808,926.412,2125.391,937.871,2129.974,926.412,2125.391,930.996" fill="#37474F" style="stroke:#37474F;stroke-width:1.146;stroke-linejoin:miter;stroke-miterlimit:10;"/><line x1="826.777" y1="1054.638" x2="826.777" y2="1077.555" style="stroke:#37474F;stroke-width:1.146;"/><polygon points="822.194,1066.097,826.777,1077.555,831.36,1066.097,826.777,1070.68" fill="#37474F" style="stroke:#37474F;stroke-width:1.146;stroke-linejoin:miter;stroke-miterlimit:10;"/><line x1="826.777" y1="1947.837" x2="826.777" y2="1970.754" style="stroke:#37474F;stroke-width:1.146;"/><polygon points="822.194,1959.296,826.777,1970.754,831.36,1959.296,826.777,1963.879" fill="#37474F" style="stroke:#37474F;stroke-width:1.146;stroke-linejoin:miter;stroke-miterlimit:10;"/><line x1="2461.534" y1="1368.014" x2="2461.534" y2="1408.118" style="stroke:#37474F;stroke-width:1.146;"/><polygon points="2456.951,1396.66,2461.534,1408.118,2466.118,1396.66,2461.534,1401.243" fill="#37474F" style="stroke:#37474F;stroke-width:1.146;stroke-linejoin:miter;stroke-miterlimit:10;"/><line x1="2461.534" y1="1260.745" x2="2461.534" y2="1297.08" style="stroke:#37474F;stroke-width:1.146;"/><polygon points="2456.951,1285.622,2461.534,1297.08,2466.118,1285.622,2461.534,1290.205" fill="#37474F" style="stroke:#37474F;stroke-width:1.146;stroke-linejoin:miter;stroke-miterlimit:10;"/><line x1="2461.534" y1="1463.047" x2="2461.534" y2="1485.963" style="stroke:#37474F;stroke-width:1.146;"/><polygon points="2456.951,1474.505,2461.534,1485.963,2466.118,1474.505,2461.534,1479.088" fill="#37474F" style="stroke:#37474F;stroke-width:1.146;stroke-linejoin:miter;stroke-miterlimit:10;"/><line x1="2822.932" y1="1260.745" x2="2822.932" y2="1297.08" style="stroke:#37474F;stroke-width:1.146;"/><polygon points="2818.348,1285.622,2822.932,1297.08,2827.515,1285.622,2822.932,1290.205" fill="#37474F" style="stroke:#37474F;stroke-width:1.146;stroke-linejoin:miter;stroke-miterlimit:10;"/><line x1="2822.932" y1="1368.014" x2="2822.932" y2="1485.963" style="stroke:#37474F;stroke-width:1.146;"/><polygon points="2818.348,1474.505,2822.932,1485.963,2827.515,1474.505,2822.932,1479.088" fill="#37474F" style="stroke:#37474F;stroke-width:1.146;stroke-linejoin:miter;stroke-miterlimit:10;"/><line x1="2508.202" y1="1246.995" x2="2776.264" y2="1246.995" style="stroke:#37474F;stroke-width:1.146;"/><polygon points="2764.805,1242.412,2776.264,1246.995,2764.805,1251.578,2769.389,1246.995" fill="#37474F" style="stroke:#37474F;stroke-width:1.146;stroke-linejoin:miter;stroke-miterlimit:10;"/><line x1="2783.894" y1="1210.328" x2="2783.894" y2="1216.058" style="stroke:#37474F;stroke-width:1.146;"/><line x1="2783.894" y1="1216.058" x2="2461.534" y2="1216.058" style="stroke:#37474F;stroke-width:1.146;"/><line x1="2461.534" y1="1216.058" x2="2461.534" y2="1233.245" style="stroke:#37474F;stroke-width:1.146;"/><polygon points="2456.951,1221.787,2461.534,1233.245,2466.118,1221.787,2461.534,1226.37" fill="#37474F" style="stroke:#37474F;stroke-width:1.146;stroke-linejoin:miter;stroke-miterlimit:10;"/><line x1="2869.6" y1="1246.995" x2="3145.291" y2="1246.995" style="stroke:#37474F;stroke-width:1.146;"/><line x1="3145.291" y1="1246.995" x2="3145.291" y2="1340.698" style="stroke:#37474F;stroke-width:1.146;"/><polygon points="3140.708,1329.239,3145.291,1340.698,3149.875,1329.239,3145.291,1333.823" fill="#37474F" style="stroke:#37474F;stroke-width:1.146;stroke-linejoin:miter;stroke-miterlimit:10;"/><line x1="3145.291" y1="1411.632" x2="3145.291" y2="1485.963" style="stroke:#37474F;stroke-width:1.146;"/><polygon points="3140.708,1474.505,3145.291,1485.963,3149.875,1474.505,3145.291,1479.088" fill="#37474F" style="stroke:#37474F;stroke-width:1.146;stroke-linejoin:miter;stroke-miterlimit:10;"/><line x1="2461.534" y1="1485.963" x2="3145.291" y2="1485.963" style="stroke:#37474F;stroke-width:1.146;"/><line x1="2866.434" y1="1522.63" x2="3026.598" y2="1522.63" style="stroke:#37474F;stroke-width:1.146;"/><polygon points="3022.015,1783.553,3026.598,1795.012,3031.181,1783.553,3026.598,1788.137" fill="#37474F" style="stroke:#37474F;stroke-width:1.146;stroke-linejoin:miter;stroke-miterlimit:10;"/><line x1="3026.598" y1="1522.63" x2="3026.598" y2="2062.349" style="stroke:#37474F;stroke-width:1.146;"/><line x1="3026.598" y1="2062.349" x2="2797.644" y2="2062.349" style="stroke:#37474F;stroke-width:1.146;"/><polygon points="2809.102,2057.766,2797.644,2062.349,2809.102,2066.932,2804.519,2062.349" fill="#37474F" style="stroke:#37474F;stroke-width:1.146;stroke-linejoin:miter;stroke-miterlimit:10;"/><line x1="2783.894" y1="1485.963" x2="2783.894" y2="1508.88" style="stroke:#37474F;stroke-width:1.146;"/><polygon points="2779.311,1497.422,2783.894,1508.88,2788.477,1497.422,2783.894,1502.005" fill="#37474F" style="stroke:#37474F;stroke-width:1.146;stroke-linejoin:miter;stroke-miterlimit:10;"/><line x1="3465.308" y1="1697.115" x2="3465.308" y2="1720.031" style="stroke:#37474F;stroke-width:1.146;"/><polygon points="3460.724,1708.573,3465.308,1720.031,3469.891,1708.573,3465.308,1713.156" fill="#37474F" style="stroke:#37474F;stroke-width:1.146;stroke-linejoin:miter;stroke-miterlimit:10;"/><line x1="3465.308" y1="1774.96" x2="3465.308" y2="1815.064" style="stroke:#37474F;stroke-width:1.146;"/><polygon points="3460.724,1803.605,3465.308,1815.064,3469.891,1803.605,3465.308,1808.189" fill="#37474F" style="stroke:#37474F;stroke-width:1.146;stroke-linejoin:miter;stroke-miterlimit:10;"/><line x1="192.218" y1="202.618" x2="192.218" y2="208.347" style="stroke:#37474F;stroke-width:1.146;"/><line x1="192.218" y1="208.347" x2="826.777" y2="208.347" style="stroke:#37474F;stroke-width:1.146;"/><line x1="826.777" y1="208.347" x2="826.777" y2="225.534" style="stroke:#37474F;stroke-width:1.146;"/><polygon points="822.194,214.076,826.777,225.534,831.36,214.076,826.777,218.659" fill="#37474F" style="stroke:#37474F;stroke-width:1.146;stroke-linejoin:miter;stroke-miterlimit:10;"/><line x1="826.777" y1="280.463" x2="826.777" y2="286.192" style="stroke:#37474F;stroke-width:1.146;"/><line x1="826.777" y1="286.192" x2="1468.486" y2="286.192" style="stroke:#37474F;stroke-width:1.146;"/><line x1="1468.486" y1="286.192" x2="1468.486" y2="303.38" style="stroke:#37474F;stroke-width:1.146;"/><polygon points="1463.903,291.921,1468.486,303.38,1473.069,291.921,1468.486,296.505" fill="#37474F" style="stroke:#37474F;stroke-width:1.146;stroke-linejoin:miter;stroke-miterlimit:10;"/><line x1="192.218" y1="750.026" x2="192.218" y2="755.755" style="stroke:#37474F;stroke-width:1.146;"/><line x1="192.218" y1="755.755" x2="826.777" y2="755.755" style="stroke:#37474F;stroke-width:1.146;"/><line x1="826.777" y1="755.755" x2="826.777" y2="772.942" style="stroke:#37474F;stroke-width:1.146;"/><polygon points="822.194,761.484,826.777,772.942,831.36,761.484,826.777,766.067" fill="#37474F" style="stroke:#37474F;stroke-width:1.146;stroke-linejoin:miter;stroke-miterlimit:10;"/><line x1="2125.391" y1="976.793" x2="2125.391" y2="982.522" style="stroke:#37474F;stroke-width:1.146;"/><line x1="2125.391" y1="982.522" x2="826.777" y2="982.522" style="stroke:#37474F;stroke-width:1.146;"/><line x1="826.777" y1="982.522" x2="826.777" y2="999.71" style="stroke:#37474F;stroke-width:1.146;"/><polygon points="822.194,988.252,826.777,999.71,831.36,988.252,826.777,992.835" fill="#37474F" style="stroke:#37474F;stroke-width:1.146;stroke-linejoin:miter;stroke-miterlimit:10;"/><line x1="826.777" y1="1148.489" x2="826.777" y2="1154.218" style="stroke:#37474F;stroke-width:1.146;"/><line x1="826.777" y1="1154.218" x2="2783.894" y2="1154.218" style="stroke:#37474F;stroke-width:1.146;"/><line x1="2783.894" y1="1154.218" x2="2783.894" y2="1171.406" style="stroke:#37474F;stroke-width:1.146;"/><polygon points="2779.311,1159.948,2783.894,1171.406,2788.477,1159.948,2783.894,1164.531" fill="#37474F" style="stroke:#37474F;stroke-width:1.146;stroke-linejoin:miter;stroke-miterlimit:10;"/><line x1="826.777" y1="1619.27" x2="826.777" y2="1624.999" style="stroke:#37474F;stroke-width:1.146;"/><line x1="826.777" y1="1624.999" x2="3465.308" y2="1624.999" style="stroke:#37474F;stroke-width:1.146;"/><line x1="3465.308" y1="1624.999" x2="3465.308" y2="1642.186" style="stroke:#37474F;stroke-width:1.146;"/><polygon points="3460.724,1630.728,3465.308,1642.186,3469.891,1630.728,3465.308,1635.311" fill="#37474F" style="stroke:#37474F;stroke-width:1.146;stroke-linejoin:miter;stroke-miterlimit:10;"/><line x1="3465.308" y1="1869.992" x2="3465.308" y2="1875.721" style="stroke:#37474F;stroke-width:1.146;"/><line x1="3465.308" y1="1875.721" x2="826.777" y2="1875.721" style="stroke:#37474F;stroke-width:1.146;"/><line x1="826.777" y1="1875.721" x2="826.777" y2="1892.909" style="stroke:#37474F;stroke-width:1.146;"/><polygon points="822.194,1881.451,826.777,1892.909,831.36,1881.451,826.777,1886.034" fill="#37474F" style="stroke:#37474F;stroke-width:1.146;stroke-linejoin:miter;stroke-miterlimit:10;"/><line x1="2783.894" y1="1536.38" x2="2783.894" y2="1550.361" style="stroke:#37474F;stroke-width:1.146;"/><line x1="2783.894" y1="1550.361" x2="826.777" y2="1550.361" style="stroke:#37474F;stroke-width:1.146;"/><line x1="826.777" y1="1550.361" x2="826.777" y2="1564.341" style="stroke:#37474F;stroke-width:1.146;"/><polygon points="822.194,1552.883,826.777,1564.341,831.36,1552.883,826.777,1557.466" fill="#37474F" style="stroke:#37474F;stroke-width:1.146;stroke-linejoin:miter;stroke-miterlimit:10;"/><line x1="826.777" y1="2025.682" x2="826.777" y2="2034.618" style="stroke:#37474F;stroke-width:1.146;"/><line x1="826.777" y1="2034.618" x2="2783.894" y2="2034.618" style="stroke:#37474F;stroke-width:1.146;"/><line x1="2783.894" y1="2034.618" x2="2783.894" y2="2048.599" style="stroke:#37474F;stroke-width:1.146;"/><polygon points="2779.311,2037.141,2783.894,2048.599,2788.477,2037.141,2783.894,2041.724" fill="#37474F" style="stroke:#37474F;stroke-width:1.146;stroke-linejoin:miter;stroke-miterlimit:10;"/><line x1="2783.894" y1="2076.099" x2="2783.894" y2="2081.828" style="stroke:#37474F;stroke-width:1.146;"/><line x1="2783.894" y1="2081.828" x2="826.777" y2="2081.828" style="stroke:#37474F;stroke-width:1.146;"/><line x1="826.777" y1="2081.828" x2="826.777" y2="2099.016" style="stroke:#37474F;stroke-width:1.146;"/><polygon points="822.194,2087.557,826.777,2099.016,831.36,2087.557,826.777,2092.141" fill="#37474F" style="stroke:#37474F;stroke-width:1.146;stroke-linejoin:miter;stroke-miterlimit:10;"/><text x="94.01" y="76.878" fill="#000" font-size="13.75" textLength="194.125" font-family="'DejaVu Sans'">Purchaser client (hospital A)</text><text x="811.74" y="76.878" fill="#000" font-size="13.75" textLength="27.782" font-family="'DejaVu Sans'">Hub</text><text x="1621.125" y="76.878" fill="#000" font-size="13.75" textLength="27.184" font-family="'DejaVu Sans'">LLM</text><text x="2078.739" y="76.878" fill="#000" font-size="13.75" textLength="91.013" font-family="'DejaVu Sans'">Supplier user</text><text x="2704.649" y="76.878" fill="#000" font-size="13.75" textLength="156.198" font-family="'DejaVu Sans'">Hub operator (curator)</text><text x="3355.612" y="76.878" fill="#000" font-size="13.75" textLength="217.1" font-family="'DejaVu Sans'">Hospital nodes (via each client)</text><?plantuml-src ZLPTZzf657tdLzpcfQpARjAg-r2iDd8M9w5bMGfieaX8rc1VO8APSMV6Iv3outjc33OagT8NREph-t7kFUVE3r9bHPKpfTOT2hwHrQxeEEaAfZ7lIJXdvB9otAULqJiIk33JFnLR9xKYf_4e4uxNsXmevvLKChom6s4ufxrq6n95GHjjI-b4OJkT7s6N5NXDTYztXL1iIIeoB7AfrgHDpgRpULAPR2Ci6yeAoSfHz-I2uglFdSzlgoL-HwDx_CwgieIHeGhszJlI9HlXjA5kLeMRyD79XT8vedQVf20MsUOOmvjy9wvrmhXEFyxpBv085Jn9O6OTbmlrRA0HmMsOIf5jwGIpe9AvkDQhrKBbEgjs2262Wq8ikNZvZBeDvkcM3pH-78skecEz_RzFuGRJ-FKyQlkJbaQNsW9WcYJZmN3y9beeLaYlOffC7oOFioIDv_FfyDNZF8cEoFNhhpXj_51tffLYHxTN_OLgglkfRRBZNLdW3vuPNalhy0o9sgYZD9uQkTwu3j53vShA4Q04s9GPZ4Kc2kaEj99Sv3Sm6VcABUqgwsZ9fBXo1Z1tds2NXzuP_iYPix1rh0IQeSIERGyJ9T4Yt2oDK3ckg2ElO7brqs6Lay_a29bSKJUsMqih-1CdGrBLRidcvPNlaABkS92CvyFNmsHwXM0jp4viZrsKEJebLtxAsZ5VgEvM8jxlTEOWebClQFe0i0UHTnahkyUtIyuqIY2XpZskHEO0zoLGFI3oX9UOBD6WteDLU0etPQ1OTt3xeaU3sv-lV1phTDa1gkphlXSkszJ1-1CwvUdLTBgf_S3sikWrkxhcvYFq5-FKb7KVp-_U7kiQQxF3esPILeNUNoH2NQM3_ydfyt7olXzea886QPXxT5Bh0iKDakV9kEQ2ZLgl_Ad4872UYXf6ToWvZtolvUgxdErZ-ETaONnzScZHkLzV_4RxZOJI2NLeUoOR1ZMqyrWsw7X9outOA_GICyN1CK3w2i-ctbpQJ43LyiXJeQLQ1ibplenleTKoknqtIqRlFPlV3MV3Xt4yYiueEiC07lNsGa0kWMum-q8pJ_Fv3Da_0y72I-lrVR_HW6WbTh8uD3eaCO-fdrg8wEluVZZwG3Q3vFPezZYPZ423D1xFtdisBDGqUVKu70rI9FvdSZT7vdJz1uay3qM9ebKVY4Z_dRHoYOW87Oz6xU8WA4dx3LYnyfDtP27KIHHwtKCpXF5w3bdm6k8recQAjC38wxFrAK4We4E5Op2ev-M2FbRvEjm7TedAwMjXjxux_xbE-jDQy4-Z4uL16N262hHgvW5O6lt4eQipzd5z_cXDxpZdoFgWj3hiB3ApiBYR3kV3ktWqd7-WBj-iRsWdFY8a1ZK_ByTK1Hy_2VjMUDnMXLZNYeCT1H0zaUt1O48vjVWjE4NBpqJCmu4gsWSfkBJfKLLw044v5pMAybLnEpRhkhHxVqTTk64JK1tSXXso0NfxNHKvrFnQ-BqPngPIkUSnaiD6XU84G51B1Q0jOrFgucZgc-ee1CfJgPoEZaofjqC8FWsttuZUigtEeTPV6YIJQN8NUt5Ug3gXBPUkNX8LXkp4axhevbW3cG6E-PTShrbnpbgA9vwdy7znAcBpn3aCbmTwaypf-KdMhUSzMRbMw91F_fUWvl_ZmE8RlN8UIhrbBvHrYltJWZXl8qfbR8JptjFayI8DuKAeC43lwZqCVLmBgR2aVRSoBtaxc42peLh6RoJ3oqe2tEQCW87t_V2I5JnTQX0YxFrMgzGMT-gC_c1ofGgsuK2Ol9acircAnVgXFRdCZhWSyGvdL8kZWFK7ATklYKAFux_63-_7v3SuScwsWSNENIY8p-HnUlSsdYNJPiL4z6f0E7dWk2GAVnR5gSPdvwKARxn47FK0OHzAG7qMbqhfptWEO4D0FZdeDEORU8UhRJpM8eDHuz8d9aqDONxUaRCrK8zWs0t_0W00?></g></svg>